%TF.GenerationSoftware,KiCad,Pcbnew,8.0.6*%
%TF.CreationDate,2025-06-09T17:10:44+02:00*%
%TF.ProjectId,samro_bedienbox,73616d72-6f5f-4626-9564-69656e626f78,rev?*%
%TF.SameCoordinates,Original*%
%TF.FileFunction,Paste,Top*%
%TF.FilePolarity,Positive*%
%FSLAX46Y46*%
G04 Gerber Fmt 4.6, Leading zero omitted, Abs format (unit mm)*
G04 Created by KiCad (PCBNEW 8.0.6) date 2025-06-09 17:10:44*
%MOMM*%
%LPD*%
G01*
G04 APERTURE LIST*
G04 Aperture macros list*
%AMRoundRect*
0 Rectangle with rounded corners*
0 $1 Rounding radius*
0 $2 $3 $4 $5 $6 $7 $8 $9 X,Y pos of 4 corners*
0 Add a 4 corners polygon primitive as box body*
4,1,4,$2,$3,$4,$5,$6,$7,$8,$9,$2,$3,0*
0 Add four circle primitives for the rounded corners*
1,1,$1+$1,$2,$3*
1,1,$1+$1,$4,$5*
1,1,$1+$1,$6,$7*
1,1,$1+$1,$8,$9*
0 Add four rect primitives between the rounded corners*
20,1,$1+$1,$2,$3,$4,$5,0*
20,1,$1+$1,$4,$5,$6,$7,0*
20,1,$1+$1,$6,$7,$8,$9,0*
20,1,$1+$1,$8,$9,$2,$3,0*%
G04 Aperture macros list end*
%ADD10RoundRect,0.200000X-0.275000X0.200000X-0.275000X-0.200000X0.275000X-0.200000X0.275000X0.200000X0*%
%ADD11RoundRect,0.200000X0.275000X-0.200000X0.275000X0.200000X-0.275000X0.200000X-0.275000X-0.200000X0*%
%ADD12RoundRect,0.218750X0.256250X-0.218750X0.256250X0.218750X-0.256250X0.218750X-0.256250X-0.218750X0*%
%ADD13RoundRect,0.200000X-0.200000X-0.275000X0.200000X-0.275000X0.200000X0.275000X-0.200000X0.275000X0*%
%ADD14RoundRect,0.135000X-0.185000X0.135000X-0.185000X-0.135000X0.185000X-0.135000X0.185000X0.135000X0*%
%ADD15RoundRect,0.135000X-0.135000X-0.185000X0.135000X-0.185000X0.135000X0.185000X-0.135000X0.185000X0*%
%ADD16RoundRect,0.150000X-0.150000X0.587500X-0.150000X-0.587500X0.150000X-0.587500X0.150000X0.587500X0*%
%ADD17RoundRect,0.218750X-0.256250X0.218750X-0.256250X-0.218750X0.256250X-0.218750X0.256250X0.218750X0*%
%ADD18RoundRect,0.140000X-0.170000X0.140000X-0.170000X-0.140000X0.170000X-0.140000X0.170000X0.140000X0*%
%ADD19RoundRect,0.140000X-0.140000X-0.170000X0.140000X-0.170000X0.140000X0.170000X-0.140000X0.170000X0*%
%ADD20RoundRect,0.150000X0.150000X-0.587500X0.150000X0.587500X-0.150000X0.587500X-0.150000X-0.587500X0*%
%ADD21R,4.500000X2.000000*%
%ADD22R,1.360000X1.360000*%
%ADD23RoundRect,0.250000X-0.550000X1.050000X-0.550000X-1.050000X0.550000X-1.050000X0.550000X1.050000X0*%
%ADD24RoundRect,0.250000X-0.650000X0.325000X-0.650000X-0.325000X0.650000X-0.325000X0.650000X0.325000X0*%
%ADD25RoundRect,0.200000X0.200000X0.275000X-0.200000X0.275000X-0.200000X-0.275000X0.200000X-0.275000X0*%
G04 APERTURE END LIST*
D10*
%TO.C,R35*%
X103125000Y-87425000D03*
X103125000Y-89075000D03*
%TD*%
D11*
%TO.C,R28*%
X77225000Y-65550000D03*
X77225000Y-63900000D03*
%TD*%
%TO.C,R27*%
X73275000Y-65550000D03*
X73275000Y-63900000D03*
%TD*%
D12*
%TO.C,D9*%
X81200000Y-69512500D03*
X81200000Y-67937500D03*
%TD*%
%TO.C,D8*%
X77225000Y-69525000D03*
X77225000Y-67950000D03*
%TD*%
%TO.C,D7*%
X73275000Y-69612500D03*
X73275000Y-68037500D03*
%TD*%
D13*
%TO.C,R33*%
X145425000Y-77500000D03*
X147075000Y-77500000D03*
%TD*%
D10*
%TO.C,R5*%
X94050000Y-87375000D03*
X94050000Y-89025000D03*
%TD*%
%TO.C,R3*%
X144050000Y-87375000D03*
X144050000Y-89025000D03*
%TD*%
D11*
%TO.C,R39*%
X171905000Y-98475000D03*
X171905000Y-96825000D03*
%TD*%
%TO.C,R38*%
X167986665Y-98475000D03*
X167986665Y-96825000D03*
%TD*%
D14*
%TO.C,R37*%
X105075000Y-87890000D03*
X105075000Y-88910000D03*
%TD*%
%TO.C,R36*%
X114131816Y-85890000D03*
X114131816Y-86910000D03*
%TD*%
D10*
%TO.C,R34*%
X112231816Y-85375000D03*
X112231816Y-87025000D03*
%TD*%
D15*
%TO.C,R32*%
X137340000Y-79025000D03*
X138360000Y-79025000D03*
%TD*%
D11*
%TO.C,R31*%
X137350000Y-77500000D03*
X137350000Y-75850000D03*
%TD*%
%TO.C,R30*%
X69325000Y-63900000D03*
X69325000Y-65550000D03*
%TD*%
%TO.C,R29*%
X81175000Y-65550000D03*
X81175000Y-63900000D03*
%TD*%
D14*
%TO.C,R26*%
X109586362Y-85890000D03*
X109586362Y-86910000D03*
%TD*%
%TO.C,R25*%
X118677270Y-85890000D03*
X118677270Y-86910000D03*
%TD*%
%TO.C,R24*%
X127768178Y-85890000D03*
X127768178Y-86910000D03*
%TD*%
%TO.C,R23*%
X100495454Y-87890000D03*
X100495454Y-88910000D03*
%TD*%
D10*
%TO.C,R22*%
X107686362Y-85375000D03*
X107686362Y-87025000D03*
%TD*%
%TO.C,R21*%
X116777270Y-85375000D03*
X116777270Y-87025000D03*
%TD*%
%TO.C,R20*%
X125868178Y-85375000D03*
X125868178Y-87025000D03*
%TD*%
%TO.C,R19*%
X98595454Y-87375000D03*
X98595454Y-89025000D03*
%TD*%
D11*
%TO.C,R18*%
X65375000Y-65550000D03*
X65375000Y-63900000D03*
%TD*%
D14*
%TO.C,R17*%
X136859086Y-87890000D03*
X136859086Y-88910000D03*
%TD*%
D10*
%TO.C,R16*%
X134959086Y-87375000D03*
X134959086Y-89025000D03*
%TD*%
D11*
%TO.C,R15*%
X152313333Y-98475000D03*
X152313333Y-96825000D03*
%TD*%
D14*
%TO.C,R14*%
X141404540Y-87890000D03*
X141404540Y-88910000D03*
%TD*%
D10*
%TO.C,R13*%
X139504540Y-87375000D03*
X139504540Y-89025000D03*
%TD*%
D11*
%TO.C,R12*%
X164068332Y-98475000D03*
X164068332Y-96825000D03*
%TD*%
%TO.C,R11*%
X160149999Y-98475000D03*
X160149999Y-96825000D03*
%TD*%
D14*
%TO.C,R10*%
X132313632Y-85890000D03*
X132313632Y-86910000D03*
%TD*%
%TO.C,R9*%
X123222724Y-86910000D03*
X123222724Y-85890000D03*
%TD*%
D10*
%TO.C,R8*%
X130413632Y-87025000D03*
X130413632Y-85375000D03*
%TD*%
%TO.C,R7*%
X121322724Y-85375000D03*
X121322724Y-87025000D03*
%TD*%
D11*
%TO.C,R6*%
X156231666Y-98475000D03*
X156231666Y-96825000D03*
%TD*%
%TO.C,R2*%
X148395000Y-98475000D03*
X148395000Y-96825000D03*
%TD*%
D16*
%TO.C,Q5*%
X141404540Y-91062500D03*
X139504540Y-91062500D03*
X140454540Y-92937500D03*
%TD*%
D12*
%TO.C,D13*%
X171905000Y-102537500D03*
X171905000Y-100962500D03*
%TD*%
%TO.C,D12*%
X167986665Y-102537500D03*
X167986665Y-100962500D03*
%TD*%
D17*
%TO.C,D11*%
X143800000Y-77502500D03*
X143800000Y-75927500D03*
%TD*%
D12*
%TO.C,D10*%
X69325000Y-69612500D03*
X69325000Y-68037500D03*
%TD*%
%TO.C,D6*%
X65375000Y-69612500D03*
X65375000Y-68037500D03*
%TD*%
%TO.C,D5*%
X152313333Y-102537500D03*
X152313333Y-100962500D03*
%TD*%
%TO.C,D4*%
X164068332Y-102537500D03*
X164068332Y-100962500D03*
%TD*%
%TO.C,D3*%
X160149999Y-102537500D03*
X160149999Y-100962500D03*
%TD*%
%TO.C,D2*%
X156231666Y-102537500D03*
X156231666Y-100962500D03*
%TD*%
%TO.C,D1*%
X148395000Y-102537500D03*
X148395000Y-100962500D03*
%TD*%
D18*
%TO.C,C5*%
X133925000Y-77350000D03*
X133925000Y-78310000D03*
%TD*%
%TO.C,C4*%
X118950000Y-77280000D03*
X118950000Y-78240000D03*
%TD*%
D19*
%TO.C,C2*%
X120070000Y-75800000D03*
X121030000Y-75800000D03*
%TD*%
D11*
%TO.C,R85*%
X145350000Y-82650000D03*
X145350000Y-81000000D03*
%TD*%
D10*
%TO.C,R84*%
X97775000Y-81300000D03*
X97775000Y-79650000D03*
%TD*%
D11*
%TO.C,R83*%
X104850000Y-81200000D03*
X104850000Y-79550000D03*
%TD*%
D10*
%TO.C,R82*%
X104825000Y-78000000D03*
X104825000Y-76350000D03*
%TD*%
D14*
%TO.C,R4*%
X145950000Y-87890000D03*
X145950000Y-88910000D03*
%TD*%
%TO.C,R1*%
X95950000Y-87890000D03*
X95950000Y-88910000D03*
%TD*%
D16*
%TO.C,Q13*%
X105050000Y-90900000D03*
X103150000Y-90900000D03*
X104100000Y-92775000D03*
%TD*%
%TO.C,Q12*%
X114087500Y-89062500D03*
X112187500Y-89062500D03*
X113137500Y-90937500D03*
%TD*%
D20*
%TO.C,Q11*%
X140100000Y-78052500D03*
X142000000Y-78052500D03*
X141050000Y-76177500D03*
%TD*%
D16*
%TO.C,Q10*%
X108625000Y-90937500D03*
X107675000Y-89062500D03*
X109575000Y-89062500D03*
%TD*%
%TO.C,Q9*%
X117727270Y-90937500D03*
X116777270Y-89062500D03*
X118677270Y-89062500D03*
%TD*%
%TO.C,Q8*%
X127768178Y-89062500D03*
X125868178Y-89062500D03*
X126818178Y-90937500D03*
%TD*%
%TO.C,Q7*%
X100500000Y-91062500D03*
X98600000Y-91062500D03*
X99550000Y-92937500D03*
%TD*%
%TO.C,Q6*%
X136859086Y-91062500D03*
X134959086Y-91062500D03*
X135909086Y-92937500D03*
%TD*%
%TO.C,Q4*%
X132313632Y-89062500D03*
X130413632Y-89062500D03*
X131363632Y-90937500D03*
%TD*%
%TO.C,Q3*%
X123222724Y-89062500D03*
X121322724Y-89062500D03*
X122272724Y-90937500D03*
%TD*%
%TO.C,Q2*%
X145950000Y-91062500D03*
X144050000Y-91062500D03*
X145000000Y-92937500D03*
%TD*%
%TO.C,Q1*%
X95000000Y-92937500D03*
X94050000Y-91062500D03*
X95950000Y-91062500D03*
%TD*%
D21*
%TO.C,Y1*%
X122180000Y-79450000D03*
X130680000Y-79450000D03*
%TD*%
D22*
%TO.C,SW5*%
X141730000Y-73275000D03*
X146100000Y-73275000D03*
%TD*%
D23*
%TO.C,C3*%
X97950000Y-77100000D03*
X97950000Y-73500000D03*
%TD*%
D24*
%TO.C,C1*%
X87800000Y-72875000D03*
X87800000Y-75825000D03*
%TD*%
D10*
%TO.C,R81*%
X178400000Y-70625000D03*
X178400000Y-72275000D03*
%TD*%
D25*
%TO.C,R79*%
X77025000Y-94550000D03*
X75375000Y-94550000D03*
%TD*%
D11*
%TO.C,R80*%
X178200000Y-93325000D03*
X178200000Y-91675000D03*
%TD*%
D23*
%TO.C,C6*%
X91750000Y-73450000D03*
X91750000Y-77050000D03*
%TD*%
M02*
