%TF.GenerationSoftware,KiCad,Pcbnew,8.0.6*%
%TF.CreationDate,2025-06-09T17:10:44+02:00*%
%TF.ProjectId,samro_bedienbox,73616d72-6f5f-4626-9564-69656e626f78,rev?*%
%TF.SameCoordinates,Original*%
%TF.FileFunction,Soldermask,Bot*%
%TF.FilePolarity,Negative*%
%FSLAX46Y46*%
G04 Gerber Fmt 4.6, Leading zero omitted, Abs format (unit mm)*
G04 Created by KiCad (PCBNEW 8.0.6) date 2025-06-09 17:10:44*
%MOMM*%
%LPD*%
G01*
G04 APERTURE LIST*
%ADD10R,1.700000X1.700000*%
%ADD11O,1.700000X1.700000*%
%ADD12O,1.800000X3.000000*%
%ADD13C,1.500000*%
%ADD14C,2.500000*%
%ADD15C,3.200000*%
%ADD16R,1.600000X1.600000*%
%ADD17O,1.600000X1.600000*%
%ADD18R,1.500000X1.500000*%
%ADD19O,1.100000X2.500000*%
%ADD20C,3.600000*%
%ADD21R,1.800000X1.800000*%
%ADD22C,1.800000*%
%ADD23C,5.000000*%
G04 APERTURE END LIST*
D10*
%TO.C,J4*%
X155275000Y-67125000D03*
D11*
X152735000Y-67125000D03*
X150195000Y-67125000D03*
X147655000Y-67125000D03*
X145115000Y-67125000D03*
X142575000Y-67125000D03*
%TD*%
D10*
%TO.C,J6*%
X109930000Y-81100000D03*
D11*
X112470000Y-81100000D03*
X115010000Y-81100000D03*
%TD*%
D10*
%TO.C,J5*%
X109930000Y-77100000D03*
D11*
X112470000Y-77100000D03*
X115010000Y-77100000D03*
%TD*%
D12*
%TO.C,U3*%
X68400000Y-81550000D03*
X63900000Y-81550000D03*
D13*
X74150000Y-75050000D03*
X76650000Y-75050000D03*
X79150000Y-75050000D03*
X86400000Y-87300000D03*
X86400000Y-84800000D03*
X86400000Y-82300000D03*
D12*
X63900000Y-88050000D03*
X68400000Y-88050000D03*
D14*
X70000000Y-92550000D03*
X70000000Y-77050000D03*
X83300000Y-92550000D03*
X83300000Y-77050000D03*
%TD*%
D12*
%TO.C,U2*%
X155650000Y-81550000D03*
X151150000Y-81550000D03*
D13*
X161400000Y-75050000D03*
X163900000Y-75050000D03*
X166400000Y-75050000D03*
X173650000Y-87300000D03*
X173650000Y-84800000D03*
X173650000Y-82300000D03*
D12*
X151150000Y-88050000D03*
X155650000Y-88050000D03*
D14*
X157250000Y-92550000D03*
X157250000Y-77050000D03*
X170550000Y-92550000D03*
X170550000Y-77050000D03*
%TD*%
D15*
%TO.C,REF\u002A\u002A*%
X179798160Y-83925000D03*
%TD*%
%TO.C,REF\u002A\u002A*%
X64339340Y-102410660D03*
%TD*%
D16*
%TO.C,U1*%
X104835000Y-73700000D03*
D17*
X107375000Y-73700000D03*
X109915000Y-73700000D03*
X112455000Y-73700000D03*
X114995000Y-73700000D03*
X117535000Y-73700000D03*
X120075000Y-73700000D03*
X122615000Y-73700000D03*
X125155000Y-73700000D03*
X127695000Y-73700000D03*
X130235000Y-73700000D03*
X132775000Y-73700000D03*
X135315000Y-73700000D03*
X137855000Y-73700000D03*
X137855000Y-66080000D03*
X135315000Y-66080000D03*
X132775000Y-66080000D03*
X130235000Y-66080000D03*
X127695000Y-66080000D03*
X125155000Y-66080000D03*
X122615000Y-66080000D03*
X120075000Y-66080000D03*
X117535000Y-66080000D03*
X114995000Y-66080000D03*
X112455000Y-66080000D03*
X109915000Y-66080000D03*
X107375000Y-66080000D03*
X104835000Y-66080000D03*
%TD*%
D18*
%TO.C,U4*%
X90760000Y-69100000D03*
D13*
X93300000Y-69100000D03*
X95840000Y-69100000D03*
%TD*%
D19*
%TO.C,F1*%
X76400000Y-100275000D03*
X98900000Y-100275000D03*
%TD*%
D20*
%TO.C,*%
X162650000Y-67100000D03*
%TD*%
%TO.C,*%
X167800000Y-67100000D03*
%TD*%
D21*
%TO.C,D29*%
X175860000Y-65150000D03*
D22*
X178400000Y-65150000D03*
%TD*%
%TO.C,SW1*%
X102100000Y-80950000D03*
X95600000Y-80950000D03*
X102100000Y-85450000D03*
X95600000Y-85450000D03*
%TD*%
D21*
%TO.C,D27*%
X72725000Y-99800000D03*
D22*
X72725000Y-97260000D03*
%TD*%
D21*
%TO.C,D28*%
X175750000Y-102075000D03*
D22*
X175750000Y-99535000D03*
%TD*%
%TO.C,SW2*%
X141400000Y-80950000D03*
X134900000Y-80950000D03*
X141400000Y-85450000D03*
X134900000Y-85450000D03*
%TD*%
D23*
%TO.C,J2*%
X104740000Y-98350000D03*
X138060000Y-98350000D03*
D22*
X111705000Y-96930000D03*
X114475000Y-96930000D03*
X117245000Y-96930000D03*
X120015000Y-96930000D03*
X122785000Y-96930000D03*
X125555000Y-96930000D03*
X128325000Y-96930000D03*
X131095000Y-96930000D03*
X113090000Y-99770000D03*
X115860000Y-99770000D03*
X118630000Y-99770000D03*
X121400000Y-99770000D03*
X124170000Y-99770000D03*
X126940000Y-99770000D03*
X129710000Y-99770000D03*
%TD*%
M02*
