M48
; DRILL file {KiCad 8.0.6} date 2025-06-09T17:10:44+0200
; FORMAT={-:-/ absolute / inch / decimal}
; #@! TF.CreationDate,2025-06-09T17:10:44+02:00
; #@! TF.GenerationSoftware,Kicad,Pcbnew,8.0.6
; #@! TF.FileFunction,Plated,1,2,PTH
FMAT,2
INCH
; #@! TA.AperFunction,Plated,PTH,ViaDrill
T1C0.0118
; #@! TA.AperFunction,Plated,PTH,ComponentDrill
T2C0.0236
; #@! TA.AperFunction,Plated,PTH,ViaDrill
T3C0.0276
; #@! TA.AperFunction,Plated,PTH,ComponentDrill
T4C0.0315
; #@! TA.AperFunction,Plated,PTH,ComponentDrill
T5C0.0354
; #@! TA.AperFunction,Plated,PTH,ViaDrill
T6C0.0394
; #@! TA.AperFunction,Plated,PTH,ComponentDrill
T7C0.0394
; #@! TA.AperFunction,Plated,PTH,ComponentDrill
T8C0.0433
; #@! TA.AperFunction,Plated,PTH,ComponentDrill
T9C0.0787
%
G90
G05
T1
X3.1791Y-3.1319
X3.2844Y-2.7175
X3.3376Y-2.6093
X3.7028Y-3.7274
X3.8268Y-3.5039
X3.8809Y-3.2776
X3.8809Y-3.3986
X3.937Y-2.8622
X4.0059Y-3.5039
X4.0394Y-3.2677
X4.0846Y-2.7402
X4.0886Y-2.6772
X4.0915Y-2.826
X4.1471Y-3.2682
X4.187Y-3.4272
X4.1909Y-2.9882
X4.2015Y-3.3231
X4.2318Y-3.7436
X4.2333Y-3.2195
X4.2618Y-3.312
X4.2729Y-2.826
X4.3425Y-3.2648
X4.3661Y-3.4272
X4.3917Y-4.0413
X4.3917Y-4.0866
X4.4705Y-4.1791
X4.5453Y-3.4252
X4.6073Y-3.2451
X4.6427Y-2.7923
X4.6839Y-4.0972
X4.687Y-3.2756
X4.688Y-3.2362
X4.7244Y-3.4252
X4.7697Y-4.124
X4.8341Y-4.0551
X4.9035Y-3.4272
X4.9104Y-3.3602
X4.9431Y-4.1083
X4.9724Y-3.1535
X5.0335Y-2.7323
X5.0374Y-3.3169
X5.0394Y-3.2835
X5.0551Y-4.1437
X5.0669Y-3.0177
X5.0807Y-3.4252
X5.1791Y-3.3169
X5.187Y-4.002
X5.187Y-4.0728
X5.1988Y-2.8022
X5.2539Y-4.063
X5.2598Y-3.5059
X5.2736Y-3.012
X5.2776Y-4.0965
X5.2913Y-2.7628
X5.3494Y-2.7313
X5.3691Y-2.8376
X5.3711Y-3.1467
X5.4144Y-3.2766
X5.4409Y-3.5039
X5.4685Y-2.9862
X5.5886Y-4.1772
X5.6024Y-4.065
X5.622Y-3.5059
X5.6575Y-3.189
X5.6634Y-4.1516
X5.7165Y-4.1594
X5.7224Y-3.1043
X5.7392Y-2.4744
X5.752Y-2.8012
X5.7982Y-3.2392
X5.8386Y-4.0768
X5.8716Y-2.781
X5.878Y-2.9449
X6.4242Y-2.8287
X6.4941Y-4.1496
X6.7264Y-4.124
T3
X3.9341Y-2.9656
T4
X4.1274Y-2.6016
X4.1274Y-2.9016
X4.2274Y-2.6016
X4.2274Y-2.9016
X4.3274Y-2.6016
X4.3274Y-2.9016
X4.4274Y-2.6016
X4.4274Y-2.9016
X4.5274Y-2.6016
X4.5274Y-2.9016
X4.6274Y-2.6016
X4.6274Y-2.9016
X4.7274Y-2.6016
X4.7274Y-2.9016
X4.8274Y-2.6016
X4.8274Y-2.9016
X4.9274Y-2.6016
X4.9274Y-2.9016
X5.0274Y-2.6016
X5.0274Y-2.9016
X5.1274Y-2.6016
X5.1274Y-2.9016
X5.2274Y-2.6016
X5.2274Y-2.9016
X5.3274Y-2.6016
X5.3274Y-2.9016
X5.4274Y-2.6016
X5.4274Y-2.9016
T5
X2.8632Y-3.8291
X2.8632Y-3.9291
X6.9193Y-3.9187
X6.9193Y-4.0187
X6.9236Y-2.565
X7.0236Y-2.565
T6
X3.7303Y-3.0866
T7
X2.5157Y-3.2106
X2.6929Y-3.2106
X2.9193Y-2.9547
X3.0177Y-2.9547
X3.1161Y-2.9547
X3.4016Y-3.2402
X3.4016Y-3.3386
X3.4016Y-3.437
X3.5732Y-2.7205
X3.6732Y-2.7205
X3.7638Y-3.187
X3.7638Y-3.3642
X3.7732Y-2.7205
X4.0197Y-3.187
X4.0197Y-3.3642
X4.328Y-3.0354
X4.328Y-3.1929
X4.428Y-3.0354
X4.428Y-3.1929
X4.528Y-3.0354
X4.528Y-3.1929
X5.311Y-3.187
X5.311Y-3.3642
X5.5669Y-3.187
X5.5669Y-3.3642
X5.6132Y-2.6427
X5.7132Y-2.6427
X5.8132Y-2.6427
X5.9132Y-2.6427
X5.9508Y-3.2106
X6.0132Y-2.6427
X6.1132Y-2.6427
X6.128Y-3.2106
X6.3543Y-2.9547
X6.4528Y-2.9547
X6.5512Y-2.9547
X6.8366Y-3.2402
X6.8366Y-3.3386
X6.8366Y-3.437
T8
X4.3978Y-3.8161
X4.4524Y-3.928
X4.5069Y-3.8161
X4.5614Y-3.928
X4.6159Y-3.8161
X4.6705Y-3.928
X4.725Y-3.8161
X4.7795Y-3.928
X4.8341Y-3.8161
X4.8886Y-3.928
X4.9431Y-3.8161
X4.9976Y-3.928
X5.0522Y-3.8161
X5.1067Y-3.928
X5.1612Y-3.8161
T9
X6.4035Y-2.6417
X6.6063Y-2.6417
T2
G00X3.0079Y-3.9695
M15
G01X3.0079Y-3.9262
M16
G05
G00X3.8937Y-3.9695
M15
G01X3.8937Y-3.9262
M16
G05
M30
