%TF.GenerationSoftware,KiCad,Pcbnew,8.0.6*%
%TF.CreationDate,2025-06-23T08:03:44+02:00*%
%TF.ProjectId,samro_bedienbox_V1_4,73616d72-6f5f-4626-9564-69656e626f78,rev?*%
%TF.SameCoordinates,Original*%
%TF.FileFunction,Legend,Top*%
%TF.FilePolarity,Positive*%
%FSLAX46Y46*%
G04 Gerber Fmt 4.6, Leading zero omitted, Abs format (unit mm)*
G04 Created by KiCad (PCBNEW 8.0.6) date 2025-06-23 08:03:44*
%MOMM*%
%LPD*%
G01*
G04 APERTURE LIST*
G04 Aperture macros list*
%AMRoundRect*
0 Rectangle with rounded corners*
0 $1 Rounding radius*
0 $2 $3 $4 $5 $6 $7 $8 $9 X,Y pos of 4 corners*
0 Add a 4 corners polygon primitive as box body*
4,1,4,$2,$3,$4,$5,$6,$7,$8,$9,$2,$3,0*
0 Add four circle primitives for the rounded corners*
1,1,$1+$1,$2,$3*
1,1,$1+$1,$4,$5*
1,1,$1+$1,$6,$7*
1,1,$1+$1,$8,$9*
0 Add four rect primitives between the rounded corners*
20,1,$1+$1,$2,$3,$4,$5,0*
20,1,$1+$1,$4,$5,$6,$7,0*
20,1,$1+$1,$6,$7,$8,$9,0*
20,1,$1+$1,$8,$9,$2,$3,0*%
G04 Aperture macros list end*
%ADD10C,0.100000*%
%ADD11C,0.125000*%
%ADD12C,0.200000*%
%ADD13C,0.150000*%
%ADD14C,0.120000*%
%ADD15RoundRect,0.135000X-0.185000X0.135000X-0.185000X-0.135000X0.185000X-0.135000X0.185000X0.135000X0*%
%ADD16RoundRect,0.200000X-0.275000X0.200000X-0.275000X-0.200000X0.275000X-0.200000X0.275000X0.200000X0*%
%ADD17RoundRect,0.200000X0.275000X-0.200000X0.275000X0.200000X-0.275000X0.200000X-0.275000X-0.200000X0*%
%ADD18RoundRect,0.150000X-0.150000X0.587500X-0.150000X-0.587500X0.150000X-0.587500X0.150000X0.587500X0*%
%ADD19C,3.200000*%
%ADD20RoundRect,0.218750X0.256250X-0.218750X0.256250X0.218750X-0.256250X0.218750X-0.256250X-0.218750X0*%
%ADD21R,1.700000X1.700000*%
%ADD22O,1.700000X1.700000*%
%ADD23RoundRect,0.250000X-0.650000X0.325000X-0.650000X-0.325000X0.650000X-0.325000X0.650000X0.325000X0*%
%ADD24RoundRect,0.140000X-0.170000X0.140000X-0.170000X-0.140000X0.170000X-0.140000X0.170000X0.140000X0*%
%ADD25R,4.500000X2.000000*%
%ADD26RoundRect,0.218750X-0.256250X0.218750X-0.256250X-0.218750X0.256250X-0.218750X0.256250X0.218750X0*%
%ADD27RoundRect,0.150000X0.150000X-0.587500X0.150000X0.587500X-0.150000X0.587500X-0.150000X-0.587500X0*%
%ADD28R,1.600000X1.600000*%
%ADD29O,1.600000X1.600000*%
%ADD30RoundRect,0.200000X0.200000X0.275000X-0.200000X0.275000X-0.200000X-0.275000X0.200000X-0.275000X0*%
%ADD31R,1.500000X1.500000*%
%ADD32C,1.500000*%
%ADD33RoundRect,0.140000X-0.140000X-0.170000X0.140000X-0.170000X0.140000X0.170000X-0.140000X0.170000X0*%
%ADD34RoundRect,0.135000X-0.135000X-0.185000X0.135000X-0.185000X0.135000X0.185000X-0.135000X0.185000X0*%
%ADD35O,1.100000X2.500000*%
%ADD36C,5.000000*%
%ADD37C,1.800000*%
%ADD38RoundRect,0.200000X-0.200000X-0.275000X0.200000X-0.275000X0.200000X0.275000X-0.200000X0.275000X0*%
%ADD39C,3.600000*%
%ADD40RoundRect,0.250000X-0.550000X1.050000X-0.550000X-1.050000X0.550000X-1.050000X0.550000X1.050000X0*%
%ADD41R,1.360000X1.360000*%
%ADD42C,2.500000*%
%ADD43O,1.800000X3.000000*%
G04 APERTURE END LIST*
D10*
X106325000Y-75025000D02*
X111200000Y-75025000D01*
X111200000Y-83500000D01*
X106325000Y-83500000D01*
X106325000Y-75025000D01*
X136000000Y-81000000D02*
X137250000Y-81000000D01*
X141100000Y-65650000D02*
X141100000Y-61400000D01*
X93000000Y-92250000D02*
X93000000Y-95360000D01*
X154600000Y-65650000D02*
X154600000Y-61400000D01*
X146500000Y-65650000D02*
X146500000Y-61400000D01*
X149200000Y-65650000D02*
X149200000Y-61400000D01*
X113750000Y-75025000D02*
X118300000Y-75025000D01*
X118300000Y-83500000D01*
X113750000Y-83500000D01*
X113750000Y-75025000D01*
X110075000Y-79525000D02*
X112500000Y-79525000D01*
X110075000Y-75425000D02*
X112500000Y-75425000D01*
X85250000Y-92250000D02*
X93000000Y-92250000D01*
X143800000Y-65650000D02*
X143800000Y-61400000D01*
X151900000Y-65600000D02*
X151900000Y-61400000D01*
X67250000Y-98000000D02*
X74000000Y-98000000D01*
X74000000Y-101500000D01*
X67250000Y-101500000D01*
X67250000Y-98000000D01*
X112600000Y-82725000D02*
X115025000Y-82725000D01*
X174250000Y-97750000D02*
X180250000Y-97750000D01*
X180250000Y-101500000D01*
X174250000Y-101500000D01*
X174250000Y-97750000D01*
X85250000Y-95380000D02*
X85250000Y-92250000D01*
X112600000Y-78675000D02*
X115025000Y-78675000D01*
X157300000Y-65650000D02*
X157300000Y-61400000D01*
X117202847Y-80847664D02*
X117240942Y-80733378D01*
X117240942Y-80733378D02*
X117279038Y-80695283D01*
X117279038Y-80695283D02*
X117355228Y-80657187D01*
X117355228Y-80657187D02*
X117469514Y-80657187D01*
X117469514Y-80657187D02*
X117545704Y-80695283D01*
X117545704Y-80695283D02*
X117583800Y-80733378D01*
X117583800Y-80733378D02*
X117621895Y-80809568D01*
X117621895Y-80809568D02*
X117621895Y-81114330D01*
X117621895Y-81114330D02*
X116821895Y-81114330D01*
X116821895Y-81114330D02*
X116821895Y-80847664D01*
X116821895Y-80847664D02*
X116859990Y-80771473D01*
X116859990Y-80771473D02*
X116898085Y-80733378D01*
X116898085Y-80733378D02*
X116974276Y-80695283D01*
X116974276Y-80695283D02*
X117050466Y-80695283D01*
X117050466Y-80695283D02*
X117126657Y-80733378D01*
X117126657Y-80733378D02*
X117164752Y-80771473D01*
X117164752Y-80771473D02*
X117202847Y-80847664D01*
X117202847Y-80847664D02*
X117202847Y-81114330D01*
X117088561Y-79971473D02*
X117621895Y-79971473D01*
X117088561Y-80314330D02*
X117507609Y-80314330D01*
X117507609Y-80314330D02*
X117583800Y-80276235D01*
X117583800Y-80276235D02*
X117621895Y-80200045D01*
X117621895Y-80200045D02*
X117621895Y-80085759D01*
X117621895Y-80085759D02*
X117583800Y-80009568D01*
X117583800Y-80009568D02*
X117545704Y-79971473D01*
X117088561Y-79590520D02*
X117621895Y-79590520D01*
X117164752Y-79590520D02*
X117126657Y-79552425D01*
X117126657Y-79552425D02*
X117088561Y-79476235D01*
X117088561Y-79476235D02*
X117088561Y-79361949D01*
X117088561Y-79361949D02*
X117126657Y-79285758D01*
X117126657Y-79285758D02*
X117202847Y-79247663D01*
X117202847Y-79247663D02*
X117621895Y-79247663D01*
X117621895Y-78866710D02*
X116821895Y-78866710D01*
X117317133Y-78790520D02*
X117621895Y-78561948D01*
X117088561Y-78561948D02*
X117393323Y-78866710D01*
X117583800Y-77914329D02*
X117621895Y-77990520D01*
X117621895Y-77990520D02*
X117621895Y-78142901D01*
X117621895Y-78142901D02*
X117583800Y-78219091D01*
X117583800Y-78219091D02*
X117507609Y-78257187D01*
X117507609Y-78257187D02*
X117202847Y-78257187D01*
X117202847Y-78257187D02*
X117126657Y-78219091D01*
X117126657Y-78219091D02*
X117088561Y-78142901D01*
X117088561Y-78142901D02*
X117088561Y-77990520D01*
X117088561Y-77990520D02*
X117126657Y-77914329D01*
X117126657Y-77914329D02*
X117202847Y-77876234D01*
X117202847Y-77876234D02*
X117279038Y-77876234D01*
X117279038Y-77876234D02*
X117355228Y-78257187D01*
X117621895Y-77533377D02*
X117088561Y-77533377D01*
X117240942Y-77533377D02*
X117164752Y-77495282D01*
X117164752Y-77495282D02*
X117126657Y-77457187D01*
X117126657Y-77457187D02*
X117088561Y-77380996D01*
X117088561Y-77380996D02*
X117088561Y-77304806D01*
X67803884Y-99750966D02*
X68565789Y-99750966D01*
X68184836Y-100131919D02*
X68184836Y-99370014D01*
X69565788Y-100131919D02*
X68994360Y-100131919D01*
X69280074Y-100131919D02*
X69280074Y-99131919D01*
X69280074Y-99131919D02*
X69184836Y-99274776D01*
X69184836Y-99274776D02*
X69089598Y-99370014D01*
X69089598Y-99370014D02*
X68994360Y-99417633D01*
X69946741Y-99227157D02*
X69994360Y-99179538D01*
X69994360Y-99179538D02*
X70089598Y-99131919D01*
X70089598Y-99131919D02*
X70327693Y-99131919D01*
X70327693Y-99131919D02*
X70422931Y-99179538D01*
X70422931Y-99179538D02*
X70470550Y-99227157D01*
X70470550Y-99227157D02*
X70518169Y-99322395D01*
X70518169Y-99322395D02*
X70518169Y-99417633D01*
X70518169Y-99417633D02*
X70470550Y-99560490D01*
X70470550Y-99560490D02*
X69899122Y-100131919D01*
X69899122Y-100131919D02*
X70518169Y-100131919D01*
X70803884Y-99131919D02*
X71137217Y-100131919D01*
X71137217Y-100131919D02*
X71470550Y-99131919D01*
X86053884Y-94216919D02*
X86053884Y-93216919D01*
X86053884Y-93216919D02*
X86387217Y-93931204D01*
X86387217Y-93931204D02*
X86720550Y-93216919D01*
X86720550Y-93216919D02*
X86720550Y-94216919D01*
X87625312Y-94216919D02*
X87625312Y-93693109D01*
X87625312Y-93693109D02*
X87577693Y-93597871D01*
X87577693Y-93597871D02*
X87482455Y-93550252D01*
X87482455Y-93550252D02*
X87291979Y-93550252D01*
X87291979Y-93550252D02*
X87196741Y-93597871D01*
X87625312Y-94169300D02*
X87530074Y-94216919D01*
X87530074Y-94216919D02*
X87291979Y-94216919D01*
X87291979Y-94216919D02*
X87196741Y-94169300D01*
X87196741Y-94169300D02*
X87149122Y-94074061D01*
X87149122Y-94074061D02*
X87149122Y-93978823D01*
X87149122Y-93978823D02*
X87196741Y-93883585D01*
X87196741Y-93883585D02*
X87291979Y-93835966D01*
X87291979Y-93835966D02*
X87530074Y-93835966D01*
X87530074Y-93835966D02*
X87625312Y-93788347D01*
X88006265Y-94216919D02*
X88530074Y-93550252D01*
X88006265Y-93550252D02*
X88530074Y-94216919D01*
X90196741Y-94216919D02*
X89625313Y-94216919D01*
X89911027Y-94216919D02*
X89911027Y-93216919D01*
X89911027Y-93216919D02*
X89815789Y-93359776D01*
X89815789Y-93359776D02*
X89720551Y-93455014D01*
X89720551Y-93455014D02*
X89625313Y-93502633D01*
X90625313Y-94121680D02*
X90672932Y-94169300D01*
X90672932Y-94169300D02*
X90625313Y-94216919D01*
X90625313Y-94216919D02*
X90577694Y-94169300D01*
X90577694Y-94169300D02*
X90625313Y-94121680D01*
X90625313Y-94121680D02*
X90625313Y-94216919D01*
X91530074Y-93216919D02*
X91339598Y-93216919D01*
X91339598Y-93216919D02*
X91244360Y-93264538D01*
X91244360Y-93264538D02*
X91196741Y-93312157D01*
X91196741Y-93312157D02*
X91101503Y-93455014D01*
X91101503Y-93455014D02*
X91053884Y-93645490D01*
X91053884Y-93645490D02*
X91053884Y-94026442D01*
X91053884Y-94026442D02*
X91101503Y-94121680D01*
X91101503Y-94121680D02*
X91149122Y-94169300D01*
X91149122Y-94169300D02*
X91244360Y-94216919D01*
X91244360Y-94216919D02*
X91434836Y-94216919D01*
X91434836Y-94216919D02*
X91530074Y-94169300D01*
X91530074Y-94169300D02*
X91577693Y-94121680D01*
X91577693Y-94121680D02*
X91625312Y-94026442D01*
X91625312Y-94026442D02*
X91625312Y-93788347D01*
X91625312Y-93788347D02*
X91577693Y-93693109D01*
X91577693Y-93693109D02*
X91530074Y-93645490D01*
X91530074Y-93645490D02*
X91434836Y-93597871D01*
X91434836Y-93597871D02*
X91244360Y-93597871D01*
X91244360Y-93597871D02*
X91149122Y-93645490D01*
X91149122Y-93645490D02*
X91101503Y-93693109D01*
X91101503Y-93693109D02*
X91053884Y-93788347D01*
X92006265Y-93931204D02*
X92482455Y-93931204D01*
X91911027Y-94216919D02*
X92244360Y-93216919D01*
X92244360Y-93216919D02*
X92577693Y-94216919D01*
X176803884Y-99750966D02*
X177565789Y-99750966D01*
X177184836Y-100131919D02*
X177184836Y-99370014D01*
X178518169Y-99131919D02*
X178041979Y-99131919D01*
X178041979Y-99131919D02*
X177994360Y-99608109D01*
X177994360Y-99608109D02*
X178041979Y-99560490D01*
X178041979Y-99560490D02*
X178137217Y-99512871D01*
X178137217Y-99512871D02*
X178375312Y-99512871D01*
X178375312Y-99512871D02*
X178470550Y-99560490D01*
X178470550Y-99560490D02*
X178518169Y-99608109D01*
X178518169Y-99608109D02*
X178565788Y-99703347D01*
X178565788Y-99703347D02*
X178565788Y-99941442D01*
X178565788Y-99941442D02*
X178518169Y-100036680D01*
X178518169Y-100036680D02*
X178470550Y-100084300D01*
X178470550Y-100084300D02*
X178375312Y-100131919D01*
X178375312Y-100131919D02*
X178137217Y-100131919D01*
X178137217Y-100131919D02*
X178041979Y-100084300D01*
X178041979Y-100084300D02*
X177994360Y-100036680D01*
X178851503Y-99131919D02*
X179184836Y-100131919D01*
X179184836Y-100131919D02*
X179518169Y-99131919D01*
X148356919Y-65246115D02*
X147356919Y-65246115D01*
X147356919Y-65246115D02*
X148071204Y-64912782D01*
X148071204Y-64912782D02*
X147356919Y-64579449D01*
X147356919Y-64579449D02*
X148356919Y-64579449D01*
X148356919Y-64103258D02*
X147356919Y-64103258D01*
X148309300Y-63674687D02*
X148356919Y-63531830D01*
X148356919Y-63531830D02*
X148356919Y-63293735D01*
X148356919Y-63293735D02*
X148309300Y-63198497D01*
X148309300Y-63198497D02*
X148261680Y-63150878D01*
X148261680Y-63150878D02*
X148166442Y-63103259D01*
X148166442Y-63103259D02*
X148071204Y-63103259D01*
X148071204Y-63103259D02*
X147975966Y-63150878D01*
X147975966Y-63150878D02*
X147928347Y-63198497D01*
X147928347Y-63198497D02*
X147880728Y-63293735D01*
X147880728Y-63293735D02*
X147833109Y-63484211D01*
X147833109Y-63484211D02*
X147785490Y-63579449D01*
X147785490Y-63579449D02*
X147737871Y-63627068D01*
X147737871Y-63627068D02*
X147642633Y-63674687D01*
X147642633Y-63674687D02*
X147547395Y-63674687D01*
X147547395Y-63674687D02*
X147452157Y-63627068D01*
X147452157Y-63627068D02*
X147404538Y-63579449D01*
X147404538Y-63579449D02*
X147356919Y-63484211D01*
X147356919Y-63484211D02*
X147356919Y-63246116D01*
X147356919Y-63246116D02*
X147404538Y-63103259D01*
X147356919Y-62484211D02*
X147356919Y-62293735D01*
X147356919Y-62293735D02*
X147404538Y-62198497D01*
X147404538Y-62198497D02*
X147499776Y-62103259D01*
X147499776Y-62103259D02*
X147690252Y-62055640D01*
X147690252Y-62055640D02*
X148023585Y-62055640D01*
X148023585Y-62055640D02*
X148214061Y-62103259D01*
X148214061Y-62103259D02*
X148309300Y-62198497D01*
X148309300Y-62198497D02*
X148356919Y-62293735D01*
X148356919Y-62293735D02*
X148356919Y-62484211D01*
X148356919Y-62484211D02*
X148309300Y-62579449D01*
X148309300Y-62579449D02*
X148214061Y-62674687D01*
X148214061Y-62674687D02*
X148023585Y-62722306D01*
X148023585Y-62722306D02*
X147690252Y-62722306D01*
X147690252Y-62722306D02*
X147499776Y-62674687D01*
X147499776Y-62674687D02*
X147404538Y-62579449D01*
X147404538Y-62579449D02*
X147356919Y-62484211D01*
X149896919Y-65388972D02*
X150896919Y-65055639D01*
X150896919Y-65055639D02*
X149896919Y-64722306D01*
X150801680Y-63817544D02*
X150849300Y-63865163D01*
X150849300Y-63865163D02*
X150896919Y-64008020D01*
X150896919Y-64008020D02*
X150896919Y-64103258D01*
X150896919Y-64103258D02*
X150849300Y-64246115D01*
X150849300Y-64246115D02*
X150754061Y-64341353D01*
X150754061Y-64341353D02*
X150658823Y-64388972D01*
X150658823Y-64388972D02*
X150468347Y-64436591D01*
X150468347Y-64436591D02*
X150325490Y-64436591D01*
X150325490Y-64436591D02*
X150135014Y-64388972D01*
X150135014Y-64388972D02*
X150039776Y-64341353D01*
X150039776Y-64341353D02*
X149944538Y-64246115D01*
X149944538Y-64246115D02*
X149896919Y-64103258D01*
X149896919Y-64103258D02*
X149896919Y-64008020D01*
X149896919Y-64008020D02*
X149944538Y-63865163D01*
X149944538Y-63865163D02*
X149992157Y-63817544D01*
X150801680Y-62817544D02*
X150849300Y-62865163D01*
X150849300Y-62865163D02*
X150896919Y-63008020D01*
X150896919Y-63008020D02*
X150896919Y-63103258D01*
X150896919Y-63103258D02*
X150849300Y-63246115D01*
X150849300Y-63246115D02*
X150754061Y-63341353D01*
X150754061Y-63341353D02*
X150658823Y-63388972D01*
X150658823Y-63388972D02*
X150468347Y-63436591D01*
X150468347Y-63436591D02*
X150325490Y-63436591D01*
X150325490Y-63436591D02*
X150135014Y-63388972D01*
X150135014Y-63388972D02*
X150039776Y-63341353D01*
X150039776Y-63341353D02*
X149944538Y-63246115D01*
X149944538Y-63246115D02*
X149896919Y-63103258D01*
X149896919Y-63103258D02*
X149896919Y-63008020D01*
X149896919Y-63008020D02*
X149944538Y-62865163D01*
X149944538Y-62865163D02*
X149992157Y-62817544D01*
X155024538Y-64722306D02*
X154976919Y-64817544D01*
X154976919Y-64817544D02*
X154976919Y-64960401D01*
X154976919Y-64960401D02*
X155024538Y-65103258D01*
X155024538Y-65103258D02*
X155119776Y-65198496D01*
X155119776Y-65198496D02*
X155215014Y-65246115D01*
X155215014Y-65246115D02*
X155405490Y-65293734D01*
X155405490Y-65293734D02*
X155548347Y-65293734D01*
X155548347Y-65293734D02*
X155738823Y-65246115D01*
X155738823Y-65246115D02*
X155834061Y-65198496D01*
X155834061Y-65198496D02*
X155929300Y-65103258D01*
X155929300Y-65103258D02*
X155976919Y-64960401D01*
X155976919Y-64960401D02*
X155976919Y-64865163D01*
X155976919Y-64865163D02*
X155929300Y-64722306D01*
X155929300Y-64722306D02*
X155881680Y-64674687D01*
X155881680Y-64674687D02*
X155548347Y-64674687D01*
X155548347Y-64674687D02*
X155548347Y-64865163D01*
X155976919Y-64246115D02*
X154976919Y-64246115D01*
X154976919Y-64246115D02*
X155976919Y-63674687D01*
X155976919Y-63674687D02*
X154976919Y-63674687D01*
X155976919Y-63198496D02*
X154976919Y-63198496D01*
X154976919Y-63198496D02*
X154976919Y-62960401D01*
X154976919Y-62960401D02*
X155024538Y-62817544D01*
X155024538Y-62817544D02*
X155119776Y-62722306D01*
X155119776Y-62722306D02*
X155215014Y-62674687D01*
X155215014Y-62674687D02*
X155405490Y-62627068D01*
X155405490Y-62627068D02*
X155548347Y-62627068D01*
X155548347Y-62627068D02*
X155738823Y-62674687D01*
X155738823Y-62674687D02*
X155834061Y-62722306D01*
X155834061Y-62722306D02*
X155929300Y-62817544D01*
X155929300Y-62817544D02*
X155976919Y-62960401D01*
X155976919Y-62960401D02*
X155976919Y-63198496D01*
X145816919Y-65246115D02*
X144816919Y-65246115D01*
X144816919Y-65246115D02*
X145531204Y-64912782D01*
X145531204Y-64912782D02*
X144816919Y-64579449D01*
X144816919Y-64579449D02*
X145816919Y-64579449D01*
X144816919Y-63912782D02*
X144816919Y-63722306D01*
X144816919Y-63722306D02*
X144864538Y-63627068D01*
X144864538Y-63627068D02*
X144959776Y-63531830D01*
X144959776Y-63531830D02*
X145150252Y-63484211D01*
X145150252Y-63484211D02*
X145483585Y-63484211D01*
X145483585Y-63484211D02*
X145674061Y-63531830D01*
X145674061Y-63531830D02*
X145769300Y-63627068D01*
X145769300Y-63627068D02*
X145816919Y-63722306D01*
X145816919Y-63722306D02*
X145816919Y-63912782D01*
X145816919Y-63912782D02*
X145769300Y-64008020D01*
X145769300Y-64008020D02*
X145674061Y-64103258D01*
X145674061Y-64103258D02*
X145483585Y-64150877D01*
X145483585Y-64150877D02*
X145150252Y-64150877D01*
X145150252Y-64150877D02*
X144959776Y-64103258D01*
X144959776Y-64103258D02*
X144864538Y-64008020D01*
X144864538Y-64008020D02*
X144816919Y-63912782D01*
X145769300Y-63103258D02*
X145816919Y-62960401D01*
X145816919Y-62960401D02*
X145816919Y-62722306D01*
X145816919Y-62722306D02*
X145769300Y-62627068D01*
X145769300Y-62627068D02*
X145721680Y-62579449D01*
X145721680Y-62579449D02*
X145626442Y-62531830D01*
X145626442Y-62531830D02*
X145531204Y-62531830D01*
X145531204Y-62531830D02*
X145435966Y-62579449D01*
X145435966Y-62579449D02*
X145388347Y-62627068D01*
X145388347Y-62627068D02*
X145340728Y-62722306D01*
X145340728Y-62722306D02*
X145293109Y-62912782D01*
X145293109Y-62912782D02*
X145245490Y-63008020D01*
X145245490Y-63008020D02*
X145197871Y-63055639D01*
X145197871Y-63055639D02*
X145102633Y-63103258D01*
X145102633Y-63103258D02*
X145007395Y-63103258D01*
X145007395Y-63103258D02*
X144912157Y-63055639D01*
X144912157Y-63055639D02*
X144864538Y-63008020D01*
X144864538Y-63008020D02*
X144816919Y-62912782D01*
X144816919Y-62912782D02*
X144816919Y-62674687D01*
X144816919Y-62674687D02*
X144864538Y-62531830D01*
X145816919Y-62103258D02*
X144816919Y-62103258D01*
X143276919Y-64674687D02*
X142800728Y-65008020D01*
X143276919Y-65246115D02*
X142276919Y-65246115D01*
X142276919Y-65246115D02*
X142276919Y-64865163D01*
X142276919Y-64865163D02*
X142324538Y-64769925D01*
X142324538Y-64769925D02*
X142372157Y-64722306D01*
X142372157Y-64722306D02*
X142467395Y-64674687D01*
X142467395Y-64674687D02*
X142610252Y-64674687D01*
X142610252Y-64674687D02*
X142705490Y-64722306D01*
X142705490Y-64722306D02*
X142753109Y-64769925D01*
X142753109Y-64769925D02*
X142800728Y-64865163D01*
X142800728Y-64865163D02*
X142800728Y-65246115D01*
X143229300Y-64293734D02*
X143276919Y-64150877D01*
X143276919Y-64150877D02*
X143276919Y-63912782D01*
X143276919Y-63912782D02*
X143229300Y-63817544D01*
X143229300Y-63817544D02*
X143181680Y-63769925D01*
X143181680Y-63769925D02*
X143086442Y-63722306D01*
X143086442Y-63722306D02*
X142991204Y-63722306D01*
X142991204Y-63722306D02*
X142895966Y-63769925D01*
X142895966Y-63769925D02*
X142848347Y-63817544D01*
X142848347Y-63817544D02*
X142800728Y-63912782D01*
X142800728Y-63912782D02*
X142753109Y-64103258D01*
X142753109Y-64103258D02*
X142705490Y-64198496D01*
X142705490Y-64198496D02*
X142657871Y-64246115D01*
X142657871Y-64246115D02*
X142562633Y-64293734D01*
X142562633Y-64293734D02*
X142467395Y-64293734D01*
X142467395Y-64293734D02*
X142372157Y-64246115D01*
X142372157Y-64246115D02*
X142324538Y-64198496D01*
X142324538Y-64198496D02*
X142276919Y-64103258D01*
X142276919Y-64103258D02*
X142276919Y-63865163D01*
X142276919Y-63865163D02*
X142324538Y-63722306D01*
X142276919Y-63436591D02*
X142276919Y-62865163D01*
X143276919Y-63150877D02*
X142276919Y-63150877D01*
X143163408Y-71371895D02*
X142896741Y-70990942D01*
X142706265Y-71371895D02*
X142706265Y-70571895D01*
X142706265Y-70571895D02*
X143011027Y-70571895D01*
X143011027Y-70571895D02*
X143087217Y-70609990D01*
X143087217Y-70609990D02*
X143125312Y-70648085D01*
X143125312Y-70648085D02*
X143163408Y-70724276D01*
X143163408Y-70724276D02*
X143163408Y-70838561D01*
X143163408Y-70838561D02*
X143125312Y-70914752D01*
X143125312Y-70914752D02*
X143087217Y-70952847D01*
X143087217Y-70952847D02*
X143011027Y-70990942D01*
X143011027Y-70990942D02*
X142706265Y-70990942D01*
X143811027Y-71333800D02*
X143734836Y-71371895D01*
X143734836Y-71371895D02*
X143582455Y-71371895D01*
X143582455Y-71371895D02*
X143506265Y-71333800D01*
X143506265Y-71333800D02*
X143468169Y-71257609D01*
X143468169Y-71257609D02*
X143468169Y-70952847D01*
X143468169Y-70952847D02*
X143506265Y-70876657D01*
X143506265Y-70876657D02*
X143582455Y-70838561D01*
X143582455Y-70838561D02*
X143734836Y-70838561D01*
X143734836Y-70838561D02*
X143811027Y-70876657D01*
X143811027Y-70876657D02*
X143849122Y-70952847D01*
X143849122Y-70952847D02*
X143849122Y-71029038D01*
X143849122Y-71029038D02*
X143468169Y-71105228D01*
X144153883Y-71333800D02*
X144230074Y-71371895D01*
X144230074Y-71371895D02*
X144382455Y-71371895D01*
X144382455Y-71371895D02*
X144458645Y-71333800D01*
X144458645Y-71333800D02*
X144496741Y-71257609D01*
X144496741Y-71257609D02*
X144496741Y-71219514D01*
X144496741Y-71219514D02*
X144458645Y-71143323D01*
X144458645Y-71143323D02*
X144382455Y-71105228D01*
X144382455Y-71105228D02*
X144268169Y-71105228D01*
X144268169Y-71105228D02*
X144191979Y-71067133D01*
X144191979Y-71067133D02*
X144153883Y-70990942D01*
X144153883Y-70990942D02*
X144153883Y-70952847D01*
X144153883Y-70952847D02*
X144191979Y-70876657D01*
X144191979Y-70876657D02*
X144268169Y-70838561D01*
X144268169Y-70838561D02*
X144382455Y-70838561D01*
X144382455Y-70838561D02*
X144458645Y-70876657D01*
X145144360Y-71333800D02*
X145068169Y-71371895D01*
X145068169Y-71371895D02*
X144915788Y-71371895D01*
X144915788Y-71371895D02*
X144839598Y-71333800D01*
X144839598Y-71333800D02*
X144801502Y-71257609D01*
X144801502Y-71257609D02*
X144801502Y-70952847D01*
X144801502Y-70952847D02*
X144839598Y-70876657D01*
X144839598Y-70876657D02*
X144915788Y-70838561D01*
X144915788Y-70838561D02*
X145068169Y-70838561D01*
X145068169Y-70838561D02*
X145144360Y-70876657D01*
X145144360Y-70876657D02*
X145182455Y-70952847D01*
X145182455Y-70952847D02*
X145182455Y-71029038D01*
X145182455Y-71029038D02*
X144801502Y-71105228D01*
X145411026Y-70838561D02*
X145715788Y-70838561D01*
X145525312Y-70571895D02*
X145525312Y-71257609D01*
X145525312Y-71257609D02*
X145563407Y-71333800D01*
X145563407Y-71333800D02*
X145639597Y-71371895D01*
X145639597Y-71371895D02*
X145715788Y-71371895D01*
X153389300Y-65293734D02*
X153436919Y-65150877D01*
X153436919Y-65150877D02*
X153436919Y-64912782D01*
X153436919Y-64912782D02*
X153389300Y-64817544D01*
X153389300Y-64817544D02*
X153341680Y-64769925D01*
X153341680Y-64769925D02*
X153246442Y-64722306D01*
X153246442Y-64722306D02*
X153151204Y-64722306D01*
X153151204Y-64722306D02*
X153055966Y-64769925D01*
X153055966Y-64769925D02*
X153008347Y-64817544D01*
X153008347Y-64817544D02*
X152960728Y-64912782D01*
X152960728Y-64912782D02*
X152913109Y-65103258D01*
X152913109Y-65103258D02*
X152865490Y-65198496D01*
X152865490Y-65198496D02*
X152817871Y-65246115D01*
X152817871Y-65246115D02*
X152722633Y-65293734D01*
X152722633Y-65293734D02*
X152627395Y-65293734D01*
X152627395Y-65293734D02*
X152532157Y-65246115D01*
X152532157Y-65246115D02*
X152484538Y-65198496D01*
X152484538Y-65198496D02*
X152436919Y-65103258D01*
X152436919Y-65103258D02*
X152436919Y-64865163D01*
X152436919Y-64865163D02*
X152484538Y-64722306D01*
X153341680Y-63722306D02*
X153389300Y-63769925D01*
X153389300Y-63769925D02*
X153436919Y-63912782D01*
X153436919Y-63912782D02*
X153436919Y-64008020D01*
X153436919Y-64008020D02*
X153389300Y-64150877D01*
X153389300Y-64150877D02*
X153294061Y-64246115D01*
X153294061Y-64246115D02*
X153198823Y-64293734D01*
X153198823Y-64293734D02*
X153008347Y-64341353D01*
X153008347Y-64341353D02*
X152865490Y-64341353D01*
X152865490Y-64341353D02*
X152675014Y-64293734D01*
X152675014Y-64293734D02*
X152579776Y-64246115D01*
X152579776Y-64246115D02*
X152484538Y-64150877D01*
X152484538Y-64150877D02*
X152436919Y-64008020D01*
X152436919Y-64008020D02*
X152436919Y-63912782D01*
X152436919Y-63912782D02*
X152484538Y-63769925D01*
X152484538Y-63769925D02*
X152532157Y-63722306D01*
X153436919Y-63293734D02*
X152436919Y-63293734D01*
X153436919Y-62722306D02*
X152865490Y-63150877D01*
X152436919Y-62722306D02*
X153008347Y-63293734D01*
X107218323Y-82009569D02*
X107218323Y-81628616D01*
X107446895Y-82085759D02*
X106646895Y-81819092D01*
X106646895Y-81819092D02*
X107446895Y-81552426D01*
X106913561Y-80942902D02*
X107446895Y-80942902D01*
X106913561Y-81285759D02*
X107332609Y-81285759D01*
X107332609Y-81285759D02*
X107408800Y-81247664D01*
X107408800Y-81247664D02*
X107446895Y-81171474D01*
X107446895Y-81171474D02*
X107446895Y-81057188D01*
X107446895Y-81057188D02*
X107408800Y-80980997D01*
X107408800Y-80980997D02*
X107370704Y-80942902D01*
X106913561Y-80676235D02*
X106913561Y-80371473D01*
X107446895Y-80561949D02*
X106761180Y-80561949D01*
X106761180Y-80561949D02*
X106684990Y-80523854D01*
X106684990Y-80523854D02*
X106646895Y-80447664D01*
X106646895Y-80447664D02*
X106646895Y-80371473D01*
X106913561Y-80104806D02*
X107446895Y-80104806D01*
X106989752Y-80104806D02*
X106951657Y-80066711D01*
X106951657Y-80066711D02*
X106913561Y-79990521D01*
X106913561Y-79990521D02*
X106913561Y-79876235D01*
X106913561Y-79876235D02*
X106951657Y-79800044D01*
X106951657Y-79800044D02*
X107027847Y-79761949D01*
X107027847Y-79761949D02*
X107446895Y-79761949D01*
X107446895Y-79038139D02*
X107027847Y-79038139D01*
X107027847Y-79038139D02*
X106951657Y-79076234D01*
X106951657Y-79076234D02*
X106913561Y-79152425D01*
X106913561Y-79152425D02*
X106913561Y-79304806D01*
X106913561Y-79304806D02*
X106951657Y-79380996D01*
X107408800Y-79038139D02*
X107446895Y-79114330D01*
X107446895Y-79114330D02*
X107446895Y-79304806D01*
X107446895Y-79304806D02*
X107408800Y-79380996D01*
X107408800Y-79380996D02*
X107332609Y-79419092D01*
X107332609Y-79419092D02*
X107256419Y-79419092D01*
X107256419Y-79419092D02*
X107180228Y-79380996D01*
X107180228Y-79380996D02*
X107142133Y-79304806D01*
X107142133Y-79304806D02*
X107142133Y-79114330D01*
X107142133Y-79114330D02*
X107104038Y-79038139D01*
X107446895Y-78657186D02*
X106646895Y-78657186D01*
X107446895Y-78314329D02*
X107027847Y-78314329D01*
X107027847Y-78314329D02*
X106951657Y-78352424D01*
X106951657Y-78352424D02*
X106913561Y-78428615D01*
X106913561Y-78428615D02*
X106913561Y-78542901D01*
X106913561Y-78542901D02*
X106951657Y-78619091D01*
X106951657Y-78619091D02*
X106989752Y-78657186D01*
X107446895Y-77933376D02*
X106913561Y-77933376D01*
X106989752Y-77933376D02*
X106951657Y-77895281D01*
X106951657Y-77895281D02*
X106913561Y-77819091D01*
X106913561Y-77819091D02*
X106913561Y-77704805D01*
X106913561Y-77704805D02*
X106951657Y-77628614D01*
X106951657Y-77628614D02*
X107027847Y-77590519D01*
X107027847Y-77590519D02*
X107446895Y-77590519D01*
X107027847Y-77590519D02*
X106951657Y-77552424D01*
X106951657Y-77552424D02*
X106913561Y-77476233D01*
X106913561Y-77476233D02*
X106913561Y-77361948D01*
X106913561Y-77361948D02*
X106951657Y-77285757D01*
X106951657Y-77285757D02*
X107027847Y-77247662D01*
X107027847Y-77247662D02*
X107446895Y-77247662D01*
X107408800Y-76561947D02*
X107446895Y-76638138D01*
X107446895Y-76638138D02*
X107446895Y-76790519D01*
X107446895Y-76790519D02*
X107408800Y-76866709D01*
X107408800Y-76866709D02*
X107332609Y-76904805D01*
X107332609Y-76904805D02*
X107027847Y-76904805D01*
X107027847Y-76904805D02*
X106951657Y-76866709D01*
X106951657Y-76866709D02*
X106913561Y-76790519D01*
X106913561Y-76790519D02*
X106913561Y-76638138D01*
X106913561Y-76638138D02*
X106951657Y-76561947D01*
X106951657Y-76561947D02*
X107027847Y-76523852D01*
X107027847Y-76523852D02*
X107104038Y-76523852D01*
X107104038Y-76523852D02*
X107180228Y-76904805D01*
X167182141Y-105229323D02*
X167563094Y-105229323D01*
X167105951Y-105457895D02*
X167372618Y-104657895D01*
X167372618Y-104657895D02*
X167639284Y-105457895D01*
X168248808Y-104924561D02*
X168248808Y-105457895D01*
X167905951Y-104924561D02*
X167905951Y-105343609D01*
X167905951Y-105343609D02*
X167944046Y-105419800D01*
X167944046Y-105419800D02*
X168020236Y-105457895D01*
X168020236Y-105457895D02*
X168134522Y-105457895D01*
X168134522Y-105457895D02*
X168210713Y-105419800D01*
X168210713Y-105419800D02*
X168248808Y-105381704D01*
X168515475Y-104924561D02*
X168820237Y-104924561D01*
X168629761Y-105457895D02*
X168629761Y-104772180D01*
X168629761Y-104772180D02*
X168667856Y-104695990D01*
X168667856Y-104695990D02*
X168744046Y-104657895D01*
X168744046Y-104657895D02*
X168820237Y-104657895D01*
X169086904Y-104924561D02*
X169086904Y-105457895D01*
X169086904Y-105000752D02*
X169124999Y-104962657D01*
X169124999Y-104962657D02*
X169201189Y-104924561D01*
X169201189Y-104924561D02*
X169315475Y-104924561D01*
X169315475Y-104924561D02*
X169391666Y-104962657D01*
X169391666Y-104962657D02*
X169429761Y-105038847D01*
X169429761Y-105038847D02*
X169429761Y-105457895D01*
X170153571Y-105457895D02*
X170153571Y-105038847D01*
X170153571Y-105038847D02*
X170115476Y-104962657D01*
X170115476Y-104962657D02*
X170039285Y-104924561D01*
X170039285Y-104924561D02*
X169886904Y-104924561D01*
X169886904Y-104924561D02*
X169810714Y-104962657D01*
X170153571Y-105419800D02*
X170077380Y-105457895D01*
X170077380Y-105457895D02*
X169886904Y-105457895D01*
X169886904Y-105457895D02*
X169810714Y-105419800D01*
X169810714Y-105419800D02*
X169772618Y-105343609D01*
X169772618Y-105343609D02*
X169772618Y-105267419D01*
X169772618Y-105267419D02*
X169810714Y-105191228D01*
X169810714Y-105191228D02*
X169886904Y-105153133D01*
X169886904Y-105153133D02*
X170077380Y-105153133D01*
X170077380Y-105153133D02*
X170153571Y-105115038D01*
X170534524Y-105457895D02*
X170534524Y-104657895D01*
X170877381Y-105457895D02*
X170877381Y-105038847D01*
X170877381Y-105038847D02*
X170839286Y-104962657D01*
X170839286Y-104962657D02*
X170763095Y-104924561D01*
X170763095Y-104924561D02*
X170648809Y-104924561D01*
X170648809Y-104924561D02*
X170572619Y-104962657D01*
X170572619Y-104962657D02*
X170534524Y-105000752D01*
X171258334Y-105457895D02*
X171258334Y-104924561D01*
X171258334Y-105000752D02*
X171296429Y-104962657D01*
X171296429Y-104962657D02*
X171372619Y-104924561D01*
X171372619Y-104924561D02*
X171486905Y-104924561D01*
X171486905Y-104924561D02*
X171563096Y-104962657D01*
X171563096Y-104962657D02*
X171601191Y-105038847D01*
X171601191Y-105038847D02*
X171601191Y-105457895D01*
X171601191Y-105038847D02*
X171639286Y-104962657D01*
X171639286Y-104962657D02*
X171715477Y-104924561D01*
X171715477Y-104924561D02*
X171829762Y-104924561D01*
X171829762Y-104924561D02*
X171905953Y-104962657D01*
X171905953Y-104962657D02*
X171944048Y-105038847D01*
X171944048Y-105038847D02*
X171944048Y-105457895D01*
X172629763Y-105419800D02*
X172553572Y-105457895D01*
X172553572Y-105457895D02*
X172401191Y-105457895D01*
X172401191Y-105457895D02*
X172325001Y-105419800D01*
X172325001Y-105419800D02*
X172286905Y-105343609D01*
X172286905Y-105343609D02*
X172286905Y-105038847D01*
X172286905Y-105038847D02*
X172325001Y-104962657D01*
X172325001Y-104962657D02*
X172401191Y-104924561D01*
X172401191Y-104924561D02*
X172553572Y-104924561D01*
X172553572Y-104924561D02*
X172629763Y-104962657D01*
X172629763Y-104962657D02*
X172667858Y-105038847D01*
X172667858Y-105038847D02*
X172667858Y-105115038D01*
X172667858Y-105115038D02*
X172286905Y-105191228D01*
X166850000Y-104025000D02*
X173000000Y-104025000D01*
X173000000Y-105875000D01*
X166850000Y-105875000D01*
X166850000Y-104025000D01*
X77714047Y-72113847D02*
X77828333Y-72151942D01*
X77828333Y-72151942D02*
X77866428Y-72190038D01*
X77866428Y-72190038D02*
X77904524Y-72266228D01*
X77904524Y-72266228D02*
X77904524Y-72380514D01*
X77904524Y-72380514D02*
X77866428Y-72456704D01*
X77866428Y-72456704D02*
X77828333Y-72494800D01*
X77828333Y-72494800D02*
X77752143Y-72532895D01*
X77752143Y-72532895D02*
X77447381Y-72532895D01*
X77447381Y-72532895D02*
X77447381Y-71732895D01*
X77447381Y-71732895D02*
X77714047Y-71732895D01*
X77714047Y-71732895D02*
X77790238Y-71770990D01*
X77790238Y-71770990D02*
X77828333Y-71809085D01*
X77828333Y-71809085D02*
X77866428Y-71885276D01*
X77866428Y-71885276D02*
X77866428Y-71961466D01*
X77866428Y-71961466D02*
X77828333Y-72037657D01*
X77828333Y-72037657D02*
X77790238Y-72075752D01*
X77790238Y-72075752D02*
X77714047Y-72113847D01*
X77714047Y-72113847D02*
X77447381Y-72113847D01*
X78590238Y-71999561D02*
X78590238Y-72532895D01*
X78247381Y-71999561D02*
X78247381Y-72418609D01*
X78247381Y-72418609D02*
X78285476Y-72494800D01*
X78285476Y-72494800D02*
X78361666Y-72532895D01*
X78361666Y-72532895D02*
X78475952Y-72532895D01*
X78475952Y-72532895D02*
X78552143Y-72494800D01*
X78552143Y-72494800D02*
X78590238Y-72456704D01*
X78971191Y-71999561D02*
X78971191Y-72532895D01*
X78971191Y-72075752D02*
X79009286Y-72037657D01*
X79009286Y-72037657D02*
X79085476Y-71999561D01*
X79085476Y-71999561D02*
X79199762Y-71999561D01*
X79199762Y-71999561D02*
X79275953Y-72037657D01*
X79275953Y-72037657D02*
X79314048Y-72113847D01*
X79314048Y-72113847D02*
X79314048Y-72532895D01*
X79695001Y-72532895D02*
X79695001Y-71732895D01*
X79771191Y-72228133D02*
X79999763Y-72532895D01*
X79999763Y-71999561D02*
X79695001Y-72304323D01*
X80647382Y-72494800D02*
X80571191Y-72532895D01*
X80571191Y-72532895D02*
X80418810Y-72532895D01*
X80418810Y-72532895D02*
X80342620Y-72494800D01*
X80342620Y-72494800D02*
X80304524Y-72418609D01*
X80304524Y-72418609D02*
X80304524Y-72113847D01*
X80304524Y-72113847D02*
X80342620Y-72037657D01*
X80342620Y-72037657D02*
X80418810Y-71999561D01*
X80418810Y-71999561D02*
X80571191Y-71999561D01*
X80571191Y-71999561D02*
X80647382Y-72037657D01*
X80647382Y-72037657D02*
X80685477Y-72113847D01*
X80685477Y-72113847D02*
X80685477Y-72190038D01*
X80685477Y-72190038D02*
X80304524Y-72266228D01*
X81028334Y-72532895D02*
X81028334Y-71999561D01*
X81028334Y-72151942D02*
X81066429Y-72075752D01*
X81066429Y-72075752D02*
X81104524Y-72037657D01*
X81104524Y-72037657D02*
X81180715Y-71999561D01*
X81180715Y-71999561D02*
X81256905Y-71999561D01*
X76470000Y-71100000D02*
X82120000Y-71100000D01*
X82120000Y-72950000D01*
X76470000Y-72950000D01*
X76470000Y-71100000D01*
D11*
X166589286Y-63910166D02*
X167351191Y-63910166D01*
X166970238Y-64291119D02*
X166970238Y-63529214D01*
X168303571Y-63291119D02*
X167827381Y-63291119D01*
X167827381Y-63291119D02*
X167779762Y-63767309D01*
X167779762Y-63767309D02*
X167827381Y-63719690D01*
X167827381Y-63719690D02*
X167922619Y-63672071D01*
X167922619Y-63672071D02*
X168160714Y-63672071D01*
X168160714Y-63672071D02*
X168255952Y-63719690D01*
X168255952Y-63719690D02*
X168303571Y-63767309D01*
X168303571Y-63767309D02*
X168351190Y-63862547D01*
X168351190Y-63862547D02*
X168351190Y-64100642D01*
X168351190Y-64100642D02*
X168303571Y-64195880D01*
X168303571Y-64195880D02*
X168255952Y-64243500D01*
X168255952Y-64243500D02*
X168160714Y-64291119D01*
X168160714Y-64291119D02*
X167922619Y-64291119D01*
X167922619Y-64291119D02*
X167827381Y-64243500D01*
X167827381Y-64243500D02*
X167779762Y-64195880D01*
X168636905Y-63291119D02*
X168970238Y-64291119D01*
X168970238Y-64291119D02*
X169303571Y-63291119D01*
D12*
X165600000Y-62500000D02*
X170150000Y-62500000D01*
X170150000Y-69700000D01*
X165600000Y-69700000D01*
X165600000Y-62500000D01*
D10*
X68723570Y-72494800D02*
X68837856Y-72532895D01*
X68837856Y-72532895D02*
X69028332Y-72532895D01*
X69028332Y-72532895D02*
X69104523Y-72494800D01*
X69104523Y-72494800D02*
X69142618Y-72456704D01*
X69142618Y-72456704D02*
X69180713Y-72380514D01*
X69180713Y-72380514D02*
X69180713Y-72304323D01*
X69180713Y-72304323D02*
X69142618Y-72228133D01*
X69142618Y-72228133D02*
X69104523Y-72190038D01*
X69104523Y-72190038D02*
X69028332Y-72151942D01*
X69028332Y-72151942D02*
X68875951Y-72113847D01*
X68875951Y-72113847D02*
X68799761Y-72075752D01*
X68799761Y-72075752D02*
X68761666Y-72037657D01*
X68761666Y-72037657D02*
X68723570Y-71961466D01*
X68723570Y-71961466D02*
X68723570Y-71885276D01*
X68723570Y-71885276D02*
X68761666Y-71809085D01*
X68761666Y-71809085D02*
X68799761Y-71770990D01*
X68799761Y-71770990D02*
X68875951Y-71732895D01*
X68875951Y-71732895D02*
X69066428Y-71732895D01*
X69066428Y-71732895D02*
X69180713Y-71770990D01*
X69866428Y-72494800D02*
X69790237Y-72532895D01*
X69790237Y-72532895D02*
X69637856Y-72532895D01*
X69637856Y-72532895D02*
X69561666Y-72494800D01*
X69561666Y-72494800D02*
X69523571Y-72456704D01*
X69523571Y-72456704D02*
X69485475Y-72380514D01*
X69485475Y-72380514D02*
X69485475Y-72151942D01*
X69485475Y-72151942D02*
X69523571Y-72075752D01*
X69523571Y-72075752D02*
X69561666Y-72037657D01*
X69561666Y-72037657D02*
X69637856Y-71999561D01*
X69637856Y-71999561D02*
X69790237Y-71999561D01*
X69790237Y-71999561D02*
X69866428Y-72037657D01*
X70209285Y-72532895D02*
X70209285Y-71732895D01*
X70552142Y-72532895D02*
X70552142Y-72113847D01*
X70552142Y-72113847D02*
X70514047Y-72037657D01*
X70514047Y-72037657D02*
X70437856Y-71999561D01*
X70437856Y-71999561D02*
X70323570Y-71999561D01*
X70323570Y-71999561D02*
X70247380Y-72037657D01*
X70247380Y-72037657D02*
X70209285Y-72075752D01*
X70933095Y-71999561D02*
X70933095Y-72532895D01*
X70933095Y-72075752D02*
X70971190Y-72037657D01*
X70971190Y-72037657D02*
X71047380Y-71999561D01*
X71047380Y-71999561D02*
X71161666Y-71999561D01*
X71161666Y-71999561D02*
X71237857Y-72037657D01*
X71237857Y-72037657D02*
X71275952Y-72113847D01*
X71275952Y-72113847D02*
X71275952Y-72532895D01*
X71999762Y-72532895D02*
X71999762Y-72113847D01*
X71999762Y-72113847D02*
X71961667Y-72037657D01*
X71961667Y-72037657D02*
X71885476Y-71999561D01*
X71885476Y-71999561D02*
X71733095Y-71999561D01*
X71733095Y-71999561D02*
X71656905Y-72037657D01*
X71999762Y-72494800D02*
X71923571Y-72532895D01*
X71923571Y-72532895D02*
X71733095Y-72532895D01*
X71733095Y-72532895D02*
X71656905Y-72494800D01*
X71656905Y-72494800D02*
X71618809Y-72418609D01*
X71618809Y-72418609D02*
X71618809Y-72342419D01*
X71618809Y-72342419D02*
X71656905Y-72266228D01*
X71656905Y-72266228D02*
X71733095Y-72228133D01*
X71733095Y-72228133D02*
X71923571Y-72228133D01*
X71923571Y-72228133D02*
X71999762Y-72190038D01*
X72380715Y-72532895D02*
X72380715Y-71732895D01*
X72380715Y-72037657D02*
X72456905Y-71999561D01*
X72456905Y-71999561D02*
X72609286Y-71999561D01*
X72609286Y-71999561D02*
X72685477Y-72037657D01*
X72685477Y-72037657D02*
X72723572Y-72075752D01*
X72723572Y-72075752D02*
X72761667Y-72151942D01*
X72761667Y-72151942D02*
X72761667Y-72380514D01*
X72761667Y-72380514D02*
X72723572Y-72456704D01*
X72723572Y-72456704D02*
X72685477Y-72494800D01*
X72685477Y-72494800D02*
X72609286Y-72532895D01*
X72609286Y-72532895D02*
X72456905Y-72532895D01*
X72456905Y-72532895D02*
X72380715Y-72494800D01*
X73409287Y-72494800D02*
X73333096Y-72532895D01*
X73333096Y-72532895D02*
X73180715Y-72532895D01*
X73180715Y-72532895D02*
X73104525Y-72494800D01*
X73104525Y-72494800D02*
X73066429Y-72418609D01*
X73066429Y-72418609D02*
X73066429Y-72113847D01*
X73066429Y-72113847D02*
X73104525Y-72037657D01*
X73104525Y-72037657D02*
X73180715Y-71999561D01*
X73180715Y-71999561D02*
X73333096Y-71999561D01*
X73333096Y-71999561D02*
X73409287Y-72037657D01*
X73409287Y-72037657D02*
X73447382Y-72113847D01*
X73447382Y-72113847D02*
X73447382Y-72190038D01*
X73447382Y-72190038D02*
X73066429Y-72266228D01*
X73904524Y-72532895D02*
X73828334Y-72494800D01*
X73828334Y-72494800D02*
X73790239Y-72418609D01*
X73790239Y-72418609D02*
X73790239Y-71732895D01*
X68470000Y-71100000D02*
X74120000Y-71100000D01*
X74120000Y-72950000D01*
X68470000Y-72950000D01*
X68470000Y-71100000D01*
X62096189Y-72532895D02*
X61829522Y-72151942D01*
X61639046Y-72532895D02*
X61639046Y-71732895D01*
X61639046Y-71732895D02*
X61943808Y-71732895D01*
X61943808Y-71732895D02*
X62019998Y-71770990D01*
X62019998Y-71770990D02*
X62058093Y-71809085D01*
X62058093Y-71809085D02*
X62096189Y-71885276D01*
X62096189Y-71885276D02*
X62096189Y-71999561D01*
X62096189Y-71999561D02*
X62058093Y-72075752D01*
X62058093Y-72075752D02*
X62019998Y-72113847D01*
X62019998Y-72113847D02*
X61943808Y-72151942D01*
X61943808Y-72151942D02*
X61639046Y-72151942D01*
X62553331Y-72532895D02*
X62477141Y-72494800D01*
X62477141Y-72494800D02*
X62439046Y-72456704D01*
X62439046Y-72456704D02*
X62400950Y-72380514D01*
X62400950Y-72380514D02*
X62400950Y-72151942D01*
X62400950Y-72151942D02*
X62439046Y-72075752D01*
X62439046Y-72075752D02*
X62477141Y-72037657D01*
X62477141Y-72037657D02*
X62553331Y-71999561D01*
X62553331Y-71999561D02*
X62667617Y-71999561D01*
X62667617Y-71999561D02*
X62743808Y-72037657D01*
X62743808Y-72037657D02*
X62781903Y-72075752D01*
X62781903Y-72075752D02*
X62819998Y-72151942D01*
X62819998Y-72151942D02*
X62819998Y-72380514D01*
X62819998Y-72380514D02*
X62781903Y-72456704D01*
X62781903Y-72456704D02*
X62743808Y-72494800D01*
X62743808Y-72494800D02*
X62667617Y-72532895D01*
X62667617Y-72532895D02*
X62553331Y-72532895D01*
X63277141Y-72532895D02*
X63200951Y-72494800D01*
X63200951Y-72494800D02*
X63162856Y-72418609D01*
X63162856Y-72418609D02*
X63162856Y-71732895D01*
X63696189Y-72532895D02*
X63619999Y-72494800D01*
X63619999Y-72494800D02*
X63581904Y-72418609D01*
X63581904Y-72418609D02*
X63581904Y-71732895D01*
X64000952Y-72532895D02*
X64000952Y-71732895D01*
X64000952Y-72037657D02*
X64077142Y-71999561D01*
X64077142Y-71999561D02*
X64229523Y-71999561D01*
X64229523Y-71999561D02*
X64305714Y-72037657D01*
X64305714Y-72037657D02*
X64343809Y-72075752D01*
X64343809Y-72075752D02*
X64381904Y-72151942D01*
X64381904Y-72151942D02*
X64381904Y-72380514D01*
X64381904Y-72380514D02*
X64343809Y-72456704D01*
X64343809Y-72456704D02*
X64305714Y-72494800D01*
X64305714Y-72494800D02*
X64229523Y-72532895D01*
X64229523Y-72532895D02*
X64077142Y-72532895D01*
X64077142Y-72532895D02*
X64000952Y-72494800D01*
X64839047Y-72532895D02*
X64762857Y-72494800D01*
X64762857Y-72494800D02*
X64724762Y-72456704D01*
X64724762Y-72456704D02*
X64686666Y-72380514D01*
X64686666Y-72380514D02*
X64686666Y-72151942D01*
X64686666Y-72151942D02*
X64724762Y-72075752D01*
X64724762Y-72075752D02*
X64762857Y-72037657D01*
X64762857Y-72037657D02*
X64839047Y-71999561D01*
X64839047Y-71999561D02*
X64953333Y-71999561D01*
X64953333Y-71999561D02*
X65029524Y-72037657D01*
X65029524Y-72037657D02*
X65067619Y-72075752D01*
X65067619Y-72075752D02*
X65105714Y-72151942D01*
X65105714Y-72151942D02*
X65105714Y-72380514D01*
X65105714Y-72380514D02*
X65067619Y-72456704D01*
X65067619Y-72456704D02*
X65029524Y-72494800D01*
X65029524Y-72494800D02*
X64953333Y-72532895D01*
X64953333Y-72532895D02*
X64839047Y-72532895D01*
X65791429Y-72532895D02*
X65791429Y-71732895D01*
X65791429Y-72494800D02*
X65715238Y-72532895D01*
X65715238Y-72532895D02*
X65562857Y-72532895D01*
X65562857Y-72532895D02*
X65486667Y-72494800D01*
X65486667Y-72494800D02*
X65448572Y-72456704D01*
X65448572Y-72456704D02*
X65410476Y-72380514D01*
X65410476Y-72380514D02*
X65410476Y-72151942D01*
X65410476Y-72151942D02*
X65448572Y-72075752D01*
X65448572Y-72075752D02*
X65486667Y-72037657D01*
X65486667Y-72037657D02*
X65562857Y-71999561D01*
X65562857Y-71999561D02*
X65715238Y-71999561D01*
X65715238Y-71999561D02*
X65791429Y-72037657D01*
X66477144Y-72494800D02*
X66400953Y-72532895D01*
X66400953Y-72532895D02*
X66248572Y-72532895D01*
X66248572Y-72532895D02*
X66172382Y-72494800D01*
X66172382Y-72494800D02*
X66134286Y-72418609D01*
X66134286Y-72418609D02*
X66134286Y-72113847D01*
X66134286Y-72113847D02*
X66172382Y-72037657D01*
X66172382Y-72037657D02*
X66248572Y-71999561D01*
X66248572Y-71999561D02*
X66400953Y-71999561D01*
X66400953Y-71999561D02*
X66477144Y-72037657D01*
X66477144Y-72037657D02*
X66515239Y-72113847D01*
X66515239Y-72113847D02*
X66515239Y-72190038D01*
X66515239Y-72190038D02*
X66134286Y-72266228D01*
X66858096Y-71999561D02*
X66858096Y-72532895D01*
X66858096Y-72075752D02*
X66896191Y-72037657D01*
X66896191Y-72037657D02*
X66972381Y-71999561D01*
X66972381Y-71999561D02*
X67086667Y-71999561D01*
X67086667Y-71999561D02*
X67162858Y-72037657D01*
X67162858Y-72037657D02*
X67200953Y-72113847D01*
X67200953Y-72113847D02*
X67200953Y-72532895D01*
X61420000Y-71100000D02*
X67420000Y-71100000D01*
X67420000Y-72950000D01*
X61420000Y-72950000D01*
X61420000Y-71100000D01*
X159751191Y-105457895D02*
X159751191Y-104657895D01*
X159751191Y-104657895D02*
X159941667Y-104657895D01*
X159941667Y-104657895D02*
X160055953Y-104695990D01*
X160055953Y-104695990D02*
X160132143Y-104772180D01*
X160132143Y-104772180D02*
X160170238Y-104848371D01*
X160170238Y-104848371D02*
X160208334Y-105000752D01*
X160208334Y-105000752D02*
X160208334Y-105115038D01*
X160208334Y-105115038D02*
X160170238Y-105267419D01*
X160170238Y-105267419D02*
X160132143Y-105343609D01*
X160132143Y-105343609D02*
X160055953Y-105419800D01*
X160055953Y-105419800D02*
X159941667Y-105457895D01*
X159941667Y-105457895D02*
X159751191Y-105457895D01*
X160855953Y-105419800D02*
X160779762Y-105457895D01*
X160779762Y-105457895D02*
X160627381Y-105457895D01*
X160627381Y-105457895D02*
X160551191Y-105419800D01*
X160551191Y-105419800D02*
X160513095Y-105343609D01*
X160513095Y-105343609D02*
X160513095Y-105038847D01*
X160513095Y-105038847D02*
X160551191Y-104962657D01*
X160551191Y-104962657D02*
X160627381Y-104924561D01*
X160627381Y-104924561D02*
X160779762Y-104924561D01*
X160779762Y-104924561D02*
X160855953Y-104962657D01*
X160855953Y-104962657D02*
X160894048Y-105038847D01*
X160894048Y-105038847D02*
X160894048Y-105115038D01*
X160894048Y-105115038D02*
X160513095Y-105191228D01*
X161236905Y-105457895D02*
X161236905Y-104924561D01*
X161236905Y-104657895D02*
X161198809Y-104695990D01*
X161198809Y-104695990D02*
X161236905Y-104734085D01*
X161236905Y-104734085D02*
X161275000Y-104695990D01*
X161275000Y-104695990D02*
X161236905Y-104657895D01*
X161236905Y-104657895D02*
X161236905Y-104734085D01*
X161960714Y-105419800D02*
X161884523Y-105457895D01*
X161884523Y-105457895D02*
X161732142Y-105457895D01*
X161732142Y-105457895D02*
X161655952Y-105419800D01*
X161655952Y-105419800D02*
X161617857Y-105381704D01*
X161617857Y-105381704D02*
X161579761Y-105305514D01*
X161579761Y-105305514D02*
X161579761Y-105076942D01*
X161579761Y-105076942D02*
X161617857Y-105000752D01*
X161617857Y-105000752D02*
X161655952Y-104962657D01*
X161655952Y-104962657D02*
X161732142Y-104924561D01*
X161732142Y-104924561D02*
X161884523Y-104924561D01*
X161884523Y-104924561D02*
X161960714Y-104962657D01*
X162303571Y-105457895D02*
X162303571Y-104657895D01*
X162646428Y-105457895D02*
X162646428Y-105038847D01*
X162646428Y-105038847D02*
X162608333Y-104962657D01*
X162608333Y-104962657D02*
X162532142Y-104924561D01*
X162532142Y-104924561D02*
X162417856Y-104924561D01*
X162417856Y-104924561D02*
X162341666Y-104962657D01*
X162341666Y-104962657D02*
X162303571Y-105000752D01*
X162989285Y-105419800D02*
X163065476Y-105457895D01*
X163065476Y-105457895D02*
X163217857Y-105457895D01*
X163217857Y-105457895D02*
X163294047Y-105419800D01*
X163294047Y-105419800D02*
X163332143Y-105343609D01*
X163332143Y-105343609D02*
X163332143Y-105305514D01*
X163332143Y-105305514D02*
X163294047Y-105229323D01*
X163294047Y-105229323D02*
X163217857Y-105191228D01*
X163217857Y-105191228D02*
X163103571Y-105191228D01*
X163103571Y-105191228D02*
X163027381Y-105153133D01*
X163027381Y-105153133D02*
X162989285Y-105076942D01*
X162989285Y-105076942D02*
X162989285Y-105038847D01*
X162989285Y-105038847D02*
X163027381Y-104962657D01*
X163027381Y-104962657D02*
X163103571Y-104924561D01*
X163103571Y-104924561D02*
X163217857Y-104924561D01*
X163217857Y-104924561D02*
X163294047Y-104962657D01*
X163979762Y-105419800D02*
X163903571Y-105457895D01*
X163903571Y-105457895D02*
X163751190Y-105457895D01*
X163751190Y-105457895D02*
X163675000Y-105419800D01*
X163675000Y-105419800D02*
X163636904Y-105343609D01*
X163636904Y-105343609D02*
X163636904Y-105038847D01*
X163636904Y-105038847D02*
X163675000Y-104962657D01*
X163675000Y-104962657D02*
X163751190Y-104924561D01*
X163751190Y-104924561D02*
X163903571Y-104924561D01*
X163903571Y-104924561D02*
X163979762Y-104962657D01*
X163979762Y-104962657D02*
X164017857Y-105038847D01*
X164017857Y-105038847D02*
X164017857Y-105115038D01*
X164017857Y-105115038D02*
X163636904Y-105191228D01*
X164474999Y-105457895D02*
X164398809Y-105419800D01*
X164398809Y-105419800D02*
X164360714Y-105343609D01*
X164360714Y-105343609D02*
X164360714Y-104657895D01*
X159300000Y-104025000D02*
X164850000Y-104025000D01*
X164850000Y-105875000D01*
X159300000Y-105875000D01*
X159300000Y-104025000D01*
X150788095Y-105229323D02*
X151169048Y-105229323D01*
X150711905Y-105457895D02*
X150978572Y-104657895D01*
X150978572Y-104657895D02*
X151245238Y-105457895D01*
X151854762Y-105419800D02*
X151778571Y-105457895D01*
X151778571Y-105457895D02*
X151626190Y-105457895D01*
X151626190Y-105457895D02*
X151550000Y-105419800D01*
X151550000Y-105419800D02*
X151511905Y-105381704D01*
X151511905Y-105381704D02*
X151473809Y-105305514D01*
X151473809Y-105305514D02*
X151473809Y-105076942D01*
X151473809Y-105076942D02*
X151511905Y-105000752D01*
X151511905Y-105000752D02*
X151550000Y-104962657D01*
X151550000Y-104962657D02*
X151626190Y-104924561D01*
X151626190Y-104924561D02*
X151778571Y-104924561D01*
X151778571Y-104924561D02*
X151854762Y-104962657D01*
X152197619Y-105457895D02*
X152197619Y-104657895D01*
X152540476Y-105457895D02*
X152540476Y-105038847D01*
X152540476Y-105038847D02*
X152502381Y-104962657D01*
X152502381Y-104962657D02*
X152426190Y-104924561D01*
X152426190Y-104924561D02*
X152311904Y-104924561D01*
X152311904Y-104924561D02*
X152235714Y-104962657D01*
X152235714Y-104962657D02*
X152197619Y-105000752D01*
X152883333Y-105419800D02*
X152959524Y-105457895D01*
X152959524Y-105457895D02*
X153111905Y-105457895D01*
X153111905Y-105457895D02*
X153188095Y-105419800D01*
X153188095Y-105419800D02*
X153226191Y-105343609D01*
X153226191Y-105343609D02*
X153226191Y-105305514D01*
X153226191Y-105305514D02*
X153188095Y-105229323D01*
X153188095Y-105229323D02*
X153111905Y-105191228D01*
X153111905Y-105191228D02*
X152997619Y-105191228D01*
X152997619Y-105191228D02*
X152921429Y-105153133D01*
X152921429Y-105153133D02*
X152883333Y-105076942D01*
X152883333Y-105076942D02*
X152883333Y-105038847D01*
X152883333Y-105038847D02*
X152921429Y-104962657D01*
X152921429Y-104962657D02*
X152997619Y-104924561D01*
X152997619Y-104924561D02*
X153111905Y-104924561D01*
X153111905Y-104924561D02*
X153188095Y-104962657D01*
X153873810Y-105419800D02*
X153797619Y-105457895D01*
X153797619Y-105457895D02*
X153645238Y-105457895D01*
X153645238Y-105457895D02*
X153569048Y-105419800D01*
X153569048Y-105419800D02*
X153530952Y-105343609D01*
X153530952Y-105343609D02*
X153530952Y-105038847D01*
X153530952Y-105038847D02*
X153569048Y-104962657D01*
X153569048Y-104962657D02*
X153645238Y-104924561D01*
X153645238Y-104924561D02*
X153797619Y-104924561D01*
X153797619Y-104924561D02*
X153873810Y-104962657D01*
X153873810Y-104962657D02*
X153911905Y-105038847D01*
X153911905Y-105038847D02*
X153911905Y-105115038D01*
X153911905Y-105115038D02*
X153530952Y-105191228D01*
X147700000Y-104025000D02*
X157000000Y-104025000D01*
X157000000Y-105875000D01*
X147700000Y-105875000D01*
X147700000Y-104025000D01*
D11*
X161913095Y-63338738D02*
X161817857Y-63291119D01*
X161817857Y-63291119D02*
X161675000Y-63291119D01*
X161675000Y-63291119D02*
X161532143Y-63338738D01*
X161532143Y-63338738D02*
X161436905Y-63433976D01*
X161436905Y-63433976D02*
X161389286Y-63529214D01*
X161389286Y-63529214D02*
X161341667Y-63719690D01*
X161341667Y-63719690D02*
X161341667Y-63862547D01*
X161341667Y-63862547D02*
X161389286Y-64053023D01*
X161389286Y-64053023D02*
X161436905Y-64148261D01*
X161436905Y-64148261D02*
X161532143Y-64243500D01*
X161532143Y-64243500D02*
X161675000Y-64291119D01*
X161675000Y-64291119D02*
X161770238Y-64291119D01*
X161770238Y-64291119D02*
X161913095Y-64243500D01*
X161913095Y-64243500D02*
X161960714Y-64195880D01*
X161960714Y-64195880D02*
X161960714Y-63862547D01*
X161960714Y-63862547D02*
X161770238Y-63862547D01*
X162389286Y-64291119D02*
X162389286Y-63291119D01*
X162389286Y-63291119D02*
X162960714Y-64291119D01*
X162960714Y-64291119D02*
X162960714Y-63291119D01*
X163436905Y-64291119D02*
X163436905Y-63291119D01*
X163436905Y-63291119D02*
X163675000Y-63291119D01*
X163675000Y-63291119D02*
X163817857Y-63338738D01*
X163817857Y-63338738D02*
X163913095Y-63433976D01*
X163913095Y-63433976D02*
X163960714Y-63529214D01*
X163960714Y-63529214D02*
X164008333Y-63719690D01*
X164008333Y-63719690D02*
X164008333Y-63862547D01*
X164008333Y-63862547D02*
X163960714Y-64053023D01*
X163960714Y-64053023D02*
X163913095Y-64148261D01*
X163913095Y-64148261D02*
X163817857Y-64243500D01*
X163817857Y-64243500D02*
X163675000Y-64291119D01*
X163675000Y-64291119D02*
X163436905Y-64291119D01*
D12*
X160150000Y-62500000D02*
X165200000Y-62500000D01*
X165200000Y-69700000D01*
X160150000Y-69700000D01*
X160150000Y-62500000D01*
D13*
X157499819Y-67458333D02*
X158214104Y-67458333D01*
X158214104Y-67458333D02*
X158356961Y-67505952D01*
X158356961Y-67505952D02*
X158452200Y-67601190D01*
X158452200Y-67601190D02*
X158499819Y-67744047D01*
X158499819Y-67744047D02*
X158499819Y-67839285D01*
X157833152Y-66553571D02*
X158499819Y-66553571D01*
X157452200Y-66791666D02*
X158166485Y-67029761D01*
X158166485Y-67029761D02*
X158166485Y-66410714D01*
X125953809Y-82978628D02*
X125953809Y-83454819D01*
X125620476Y-82454819D02*
X125953809Y-82978628D01*
X125953809Y-82978628D02*
X126287142Y-82454819D01*
X127144285Y-83454819D02*
X126572857Y-83454819D01*
X126858571Y-83454819D02*
X126858571Y-82454819D01*
X126858571Y-82454819D02*
X126763333Y-82597676D01*
X126763333Y-82597676D02*
X126668095Y-82692914D01*
X126668095Y-82692914D02*
X126572857Y-82740533D01*
D10*
X87316666Y-99708609D02*
X86983333Y-99708609D01*
X86983333Y-100232419D02*
X86983333Y-99232419D01*
X86983333Y-99232419D02*
X87459523Y-99232419D01*
X88364285Y-100232419D02*
X87792857Y-100232419D01*
X88078571Y-100232419D02*
X88078571Y-99232419D01*
X88078571Y-99232419D02*
X87983333Y-99375276D01*
X87983333Y-99375276D02*
X87888095Y-99470514D01*
X87888095Y-99470514D02*
X87792857Y-99518133D01*
X121066666Y-105307419D02*
X121066666Y-106021704D01*
X121066666Y-106021704D02*
X121019047Y-106164561D01*
X121019047Y-106164561D02*
X120923809Y-106259800D01*
X120923809Y-106259800D02*
X120780952Y-106307419D01*
X120780952Y-106307419D02*
X120685714Y-106307419D01*
X121495238Y-105402657D02*
X121542857Y-105355038D01*
X121542857Y-105355038D02*
X121638095Y-105307419D01*
X121638095Y-105307419D02*
X121876190Y-105307419D01*
X121876190Y-105307419D02*
X121971428Y-105355038D01*
X121971428Y-105355038D02*
X122019047Y-105402657D01*
X122019047Y-105402657D02*
X122066666Y-105497895D01*
X122066666Y-105497895D02*
X122066666Y-105593133D01*
X122066666Y-105593133D02*
X122019047Y-105735990D01*
X122019047Y-105735990D02*
X121447619Y-106307419D01*
X121447619Y-106307419D02*
X122066666Y-106307419D01*
X131727693Y-100181919D02*
X131156265Y-100181919D01*
X131441979Y-100181919D02*
X131441979Y-99181919D01*
X131441979Y-99181919D02*
X131346741Y-99324776D01*
X131346741Y-99324776D02*
X131251503Y-99420014D01*
X131251503Y-99420014D02*
X131156265Y-99467633D01*
X132632455Y-99181919D02*
X132156265Y-99181919D01*
X132156265Y-99181919D02*
X132108646Y-99658109D01*
X132108646Y-99658109D02*
X132156265Y-99610490D01*
X132156265Y-99610490D02*
X132251503Y-99562871D01*
X132251503Y-99562871D02*
X132489598Y-99562871D01*
X132489598Y-99562871D02*
X132584836Y-99610490D01*
X132584836Y-99610490D02*
X132632455Y-99658109D01*
X132632455Y-99658109D02*
X132680074Y-99753347D01*
X132680074Y-99753347D02*
X132680074Y-99991442D01*
X132680074Y-99991442D02*
X132632455Y-100086680D01*
X132632455Y-100086680D02*
X132584836Y-100134300D01*
X132584836Y-100134300D02*
X132489598Y-100181919D01*
X132489598Y-100181919D02*
X132251503Y-100181919D01*
X132251503Y-100181919D02*
X132156265Y-100134300D01*
X132156265Y-100134300D02*
X132108646Y-100086680D01*
X132846741Y-96770490D02*
X132751503Y-96722871D01*
X132751503Y-96722871D02*
X132703884Y-96675252D01*
X132703884Y-96675252D02*
X132656265Y-96580014D01*
X132656265Y-96580014D02*
X132656265Y-96532395D01*
X132656265Y-96532395D02*
X132703884Y-96437157D01*
X132703884Y-96437157D02*
X132751503Y-96389538D01*
X132751503Y-96389538D02*
X132846741Y-96341919D01*
X132846741Y-96341919D02*
X133037217Y-96341919D01*
X133037217Y-96341919D02*
X133132455Y-96389538D01*
X133132455Y-96389538D02*
X133180074Y-96437157D01*
X133180074Y-96437157D02*
X133227693Y-96532395D01*
X133227693Y-96532395D02*
X133227693Y-96580014D01*
X133227693Y-96580014D02*
X133180074Y-96675252D01*
X133180074Y-96675252D02*
X133132455Y-96722871D01*
X133132455Y-96722871D02*
X133037217Y-96770490D01*
X133037217Y-96770490D02*
X132846741Y-96770490D01*
X132846741Y-96770490D02*
X132751503Y-96818109D01*
X132751503Y-96818109D02*
X132703884Y-96865728D01*
X132703884Y-96865728D02*
X132656265Y-96960966D01*
X132656265Y-96960966D02*
X132656265Y-97151442D01*
X132656265Y-97151442D02*
X132703884Y-97246680D01*
X132703884Y-97246680D02*
X132751503Y-97294300D01*
X132751503Y-97294300D02*
X132846741Y-97341919D01*
X132846741Y-97341919D02*
X133037217Y-97341919D01*
X133037217Y-97341919D02*
X133132455Y-97294300D01*
X133132455Y-97294300D02*
X133180074Y-97246680D01*
X133180074Y-97246680D02*
X133227693Y-97151442D01*
X133227693Y-97151442D02*
X133227693Y-96960966D01*
X133227693Y-96960966D02*
X133180074Y-96865728D01*
X133180074Y-96865728D02*
X133132455Y-96818109D01*
X133132455Y-96818109D02*
X133037217Y-96770490D01*
X110227693Y-97341919D02*
X109656265Y-97341919D01*
X109941979Y-97341919D02*
X109941979Y-96341919D01*
X109941979Y-96341919D02*
X109846741Y-96484776D01*
X109846741Y-96484776D02*
X109751503Y-96580014D01*
X109751503Y-96580014D02*
X109656265Y-96627633D01*
D14*
%TO.C,R17*%
X136479086Y-88246359D02*
X136479086Y-88553641D01*
X137239086Y-88246359D02*
X137239086Y-88553641D01*
%TO.C,R82*%
X104302500Y-76937742D02*
X104302500Y-77412258D01*
X105347500Y-76937742D02*
X105347500Y-77412258D01*
%TO.C,R85*%
X144827500Y-82062258D02*
X144827500Y-81587742D01*
X145872500Y-82062258D02*
X145872500Y-81587742D01*
%TO.C,R29*%
X80652500Y-64962258D02*
X80652500Y-64487742D01*
X81697500Y-64962258D02*
X81697500Y-64487742D01*
%TO.C,Q6*%
X134349086Y-92000000D02*
X134349086Y-91350000D01*
X134349086Y-92000000D02*
X134349086Y-92650000D01*
X137469086Y-92000000D02*
X137469086Y-91350000D01*
X137469086Y-92000000D02*
X137469086Y-92650000D01*
X137749086Y-91077500D02*
X137419086Y-90837500D01*
X137749086Y-90597500D01*
X137749086Y-91077500D01*
G36*
X137749086Y-91077500D02*
G01*
X137419086Y-90837500D01*
X137749086Y-90597500D01*
X137749086Y-91077500D01*
G37*
%TO.C,Q5*%
X138894540Y-92000000D02*
X138894540Y-91350000D01*
X138894540Y-92000000D02*
X138894540Y-92650000D01*
X142014540Y-92000000D02*
X142014540Y-91350000D01*
X142014540Y-92000000D02*
X142014540Y-92650000D01*
X142294540Y-91077500D02*
X141964540Y-90837500D01*
X142294540Y-90597500D01*
X142294540Y-91077500D01*
G36*
X142294540Y-91077500D02*
G01*
X141964540Y-90837500D01*
X142294540Y-90597500D01*
X142294540Y-91077500D01*
G37*
%TO.C,D13*%
X171170000Y-100950000D02*
X171170000Y-103235000D01*
X171170000Y-103235000D02*
X172640000Y-103235000D01*
X172640000Y-103235000D02*
X172640000Y-100950000D01*
%TO.C,Q1*%
X93440000Y-92000000D02*
X93440000Y-91350000D01*
X93440000Y-92000000D02*
X93440000Y-92650000D01*
X96560000Y-92000000D02*
X96560000Y-91350000D01*
X96560000Y-92000000D02*
X96560000Y-92650000D01*
X96840000Y-91077500D02*
X96510000Y-90837500D01*
X96840000Y-90597500D01*
X96840000Y-91077500D01*
G36*
X96840000Y-91077500D02*
G01*
X96510000Y-90837500D01*
X96840000Y-90597500D01*
X96840000Y-91077500D01*
G37*
%TO.C,D27*%
X174790000Y-98900000D02*
X174790000Y-101185000D01*
X174790000Y-101185000D02*
X176260000Y-101185000D01*
X176260000Y-101185000D02*
X176260000Y-98900000D01*
%TO.C,R27*%
X72752500Y-64962258D02*
X72752500Y-64487742D01*
X73797500Y-64962258D02*
X73797500Y-64487742D01*
%TO.C,R16*%
X134436586Y-87962742D02*
X134436586Y-88437258D01*
X135481586Y-87962742D02*
X135481586Y-88437258D01*
%TO.C,R12*%
X163545832Y-97887258D02*
X163545832Y-97412742D01*
X164590832Y-97887258D02*
X164590832Y-97412742D01*
%TO.C,R39*%
X171382500Y-97887258D02*
X171382500Y-97412742D01*
X172427500Y-97887258D02*
X172427500Y-97412742D01*
%TO.C,R5*%
X93527500Y-87962742D02*
X93527500Y-88437258D01*
X94572500Y-87962742D02*
X94572500Y-88437258D01*
%TO.C,D2*%
X155496666Y-100950000D02*
X155496666Y-103235000D01*
X155496666Y-103235000D02*
X156966666Y-103235000D01*
X156966666Y-103235000D02*
X156966666Y-100950000D01*
%TO.C,D5*%
X151578333Y-100950000D02*
X151578333Y-103235000D01*
X151578333Y-103235000D02*
X153048333Y-103235000D01*
X153048333Y-103235000D02*
X153048333Y-100950000D01*
%TO.C,J4*%
X141245000Y-65795000D02*
X141245000Y-68455000D01*
X154005000Y-65795000D02*
X141245000Y-65795000D01*
X154005000Y-65795000D02*
X154005000Y-68455000D01*
X154005000Y-68455000D02*
X141245000Y-68455000D01*
X156605000Y-67125000D02*
X156605000Y-68455000D01*
X156605000Y-68455000D02*
X155275000Y-68455000D01*
%TO.C,R28*%
X76702500Y-64962258D02*
X76702500Y-64487742D01*
X77747500Y-64962258D02*
X77747500Y-64487742D01*
%TO.C,R24*%
X127388178Y-86246359D02*
X127388178Y-86553641D01*
X128148178Y-86246359D02*
X128148178Y-86553641D01*
%TO.C,R83*%
X104327500Y-80612258D02*
X104327500Y-80137742D01*
X105372500Y-80612258D02*
X105372500Y-80137742D01*
%TO.C,C1*%
X86890000Y-73638748D02*
X86890000Y-75061252D01*
X88710000Y-73638748D02*
X88710000Y-75061252D01*
%TO.C,C4*%
X118590000Y-77652164D02*
X118590000Y-77867836D01*
X119310000Y-77652164D02*
X119310000Y-77867836D01*
%TO.C,R23*%
X100115454Y-88246359D02*
X100115454Y-88553641D01*
X100875454Y-88246359D02*
X100875454Y-88553641D01*
%TO.C,D10*%
X68590000Y-68025000D02*
X68590000Y-70310000D01*
X68590000Y-70310000D02*
X70060000Y-70310000D01*
X70060000Y-70310000D02*
X70060000Y-68025000D01*
%TO.C,R2*%
X147872500Y-97887258D02*
X147872500Y-97412742D01*
X148917500Y-97887258D02*
X148917500Y-97412742D01*
%TO.C,Q2*%
X143440000Y-92000000D02*
X143440000Y-91350000D01*
X143440000Y-92000000D02*
X143440000Y-92650000D01*
X146560000Y-92000000D02*
X146560000Y-91350000D01*
X146560000Y-92000000D02*
X146560000Y-92650000D01*
X146840000Y-91077500D02*
X146510000Y-90837500D01*
X146840000Y-90597500D01*
X146840000Y-91077500D01*
G36*
X146840000Y-91077500D02*
G01*
X146510000Y-90837500D01*
X146840000Y-90597500D01*
X146840000Y-91077500D01*
G37*
%TO.C,R15*%
X151790833Y-97887258D02*
X151790833Y-97412742D01*
X152835833Y-97887258D02*
X152835833Y-97412742D01*
%TO.C,R38*%
X167464165Y-97887258D02*
X167464165Y-97412742D01*
X168509165Y-97887258D02*
X168509165Y-97412742D01*
%TO.C,R37*%
X104695000Y-88246359D02*
X104695000Y-88553641D01*
X105455000Y-88246359D02*
X105455000Y-88553641D01*
%TO.C,D12*%
X167251665Y-100950000D02*
X167251665Y-103235000D01*
X167251665Y-103235000D02*
X168721665Y-103235000D01*
X168721665Y-103235000D02*
X168721665Y-100950000D01*
%TO.C,R21*%
X116254770Y-85962742D02*
X116254770Y-86437258D01*
X117299770Y-85962742D02*
X117299770Y-86437258D01*
%TO.C,D3*%
X159414999Y-100950000D02*
X159414999Y-103235000D01*
X159414999Y-103235000D02*
X160884999Y-103235000D01*
X160884999Y-103235000D02*
X160884999Y-100950000D01*
%TO.C,D7*%
X72540000Y-68025000D02*
X72540000Y-70310000D01*
X72540000Y-70310000D02*
X74010000Y-70310000D01*
X74010000Y-70310000D02*
X74010000Y-68025000D01*
%TO.C,D9*%
X80465000Y-67925000D02*
X80465000Y-70210000D01*
X80465000Y-70210000D02*
X81935000Y-70210000D01*
X81935000Y-70210000D02*
X81935000Y-67925000D01*
%TO.C,R9*%
X122842724Y-86246359D02*
X122842724Y-86553641D01*
X123602724Y-86246359D02*
X123602724Y-86553641D01*
%TO.C,R11*%
X159627499Y-97887258D02*
X159627499Y-97412742D01*
X160672499Y-97887258D02*
X160672499Y-97412742D01*
%TO.C,R8*%
X129891132Y-85962742D02*
X129891132Y-86437258D01*
X130936132Y-85962742D02*
X130936132Y-86437258D01*
%TO.C,R6*%
X155709166Y-97887258D02*
X155709166Y-97412742D01*
X156754166Y-97887258D02*
X156754166Y-97412742D01*
%TO.C,Y1*%
X120530000Y-82000000D02*
X133130000Y-82000000D01*
X133130000Y-76900000D02*
X120530000Y-76900000D01*
X133130000Y-82000000D02*
X133130000Y-76900000D01*
%TO.C,R14*%
X141024540Y-88246359D02*
X141024540Y-88553641D01*
X141784540Y-88246359D02*
X141784540Y-88553641D01*
%TO.C,R26*%
X109206362Y-86246359D02*
X109206362Y-86553641D01*
X109966362Y-86246359D02*
X109966362Y-86553641D01*
%TO.C,R36*%
X113751816Y-86246359D02*
X113751816Y-86553641D01*
X114511816Y-86246359D02*
X114511816Y-86553641D01*
%TO.C,R31*%
X136827500Y-76912258D02*
X136827500Y-76437742D01*
X137872500Y-76912258D02*
X137872500Y-76437742D01*
%TO.C,R20*%
X125345678Y-85962742D02*
X125345678Y-86437258D01*
X126390678Y-85962742D02*
X126390678Y-86437258D01*
%TO.C,Q9*%
X116167270Y-90000000D02*
X116167270Y-89350000D01*
X116167270Y-90000000D02*
X116167270Y-90650000D01*
X119287270Y-90000000D02*
X119287270Y-89350000D01*
X119287270Y-90000000D02*
X119287270Y-90650000D01*
X119567270Y-89077500D02*
X119237270Y-88837500D01*
X119567270Y-88597500D01*
X119567270Y-89077500D01*
G36*
X119567270Y-89077500D02*
G01*
X119237270Y-88837500D01*
X119567270Y-88597500D01*
X119567270Y-89077500D01*
G37*
%TO.C,D11*%
X143065000Y-75230000D02*
X143065000Y-77515000D01*
X144535000Y-75230000D02*
X143065000Y-75230000D01*
X144535000Y-77515000D02*
X144535000Y-75230000D01*
%TO.C,D28*%
X71990000Y-98900000D02*
X71990000Y-101185000D01*
X71990000Y-101185000D02*
X73460000Y-101185000D01*
X73460000Y-101185000D02*
X73460000Y-98900000D01*
%TO.C,R30*%
X68802500Y-64962258D02*
X68802500Y-64487742D01*
X69847500Y-64962258D02*
X69847500Y-64487742D01*
%TO.C,Q11*%
X139490000Y-77115000D02*
X139490000Y-76465000D01*
X139490000Y-77115000D02*
X139490000Y-77765000D01*
X142610000Y-77115000D02*
X142610000Y-76465000D01*
X142610000Y-77115000D02*
X142610000Y-77765000D01*
X139540000Y-78277500D02*
X139210000Y-78517500D01*
X139210000Y-78037500D01*
X139540000Y-78277500D01*
G36*
X139540000Y-78277500D02*
G01*
X139210000Y-78517500D01*
X139210000Y-78037500D01*
X139540000Y-78277500D01*
G37*
%TO.C,D6*%
X64640000Y-68025000D02*
X64640000Y-70310000D01*
X64640000Y-70310000D02*
X66110000Y-70310000D01*
X66110000Y-70310000D02*
X66110000Y-68025000D01*
%TO.C,R18*%
X64852500Y-64962258D02*
X64852500Y-64487742D01*
X65897500Y-64962258D02*
X65897500Y-64487742D01*
%TO.C,Q10*%
X107065000Y-90000000D02*
X107065000Y-89350000D01*
X107065000Y-90000000D02*
X107065000Y-90650000D01*
X110185000Y-90000000D02*
X110185000Y-89350000D01*
X110185000Y-90000000D02*
X110185000Y-90650000D01*
X110465000Y-89077500D02*
X110135000Y-88837500D01*
X110465000Y-88597500D01*
X110465000Y-89077500D01*
G36*
X110465000Y-89077500D02*
G01*
X110135000Y-88837500D01*
X110465000Y-88597500D01*
X110465000Y-89077500D01*
G37*
%TO.C,R19*%
X98072954Y-87962742D02*
X98072954Y-88437258D01*
X99117954Y-87962742D02*
X99117954Y-88437258D01*
%TO.C,U1*%
X103505000Y-67240000D02*
X103505000Y-68890000D01*
X103505000Y-70890000D02*
X103505000Y-72540000D01*
X103505000Y-72540000D02*
X139185000Y-72540000D01*
X139185000Y-67240000D02*
X103505000Y-67240000D01*
X139185000Y-72540000D02*
X139185000Y-67240000D01*
X103505000Y-68890000D02*
G75*
G02*
X103505000Y-70890000I0J-1000000D01*
G01*
%TO.C,D1*%
X147660000Y-100950000D02*
X147660000Y-103235000D01*
X147660000Y-103235000D02*
X149130000Y-103235000D01*
X149130000Y-103235000D02*
X149130000Y-100950000D01*
%TO.C,R13*%
X138982040Y-87962742D02*
X138982040Y-88437258D01*
X140027040Y-87962742D02*
X140027040Y-88437258D01*
%TO.C,R3*%
X143527500Y-87962742D02*
X143527500Y-88437258D01*
X144572500Y-87962742D02*
X144572500Y-88437258D01*
%TO.C,R34*%
X111709316Y-85962742D02*
X111709316Y-86437258D01*
X112754316Y-85962742D02*
X112754316Y-86437258D01*
%TO.C,D4*%
X163333332Y-100950000D02*
X163333332Y-103235000D01*
X163333332Y-103235000D02*
X164803332Y-103235000D01*
X164803332Y-103235000D02*
X164803332Y-100950000D01*
%TO.C,R79*%
X76437258Y-94027500D02*
X75962742Y-94027500D01*
X76437258Y-95072500D02*
X75962742Y-95072500D01*
%TO.C,J6*%
X108600000Y-82430000D02*
X108600000Y-81100000D01*
X109930000Y-82430000D02*
X108600000Y-82430000D01*
X111200000Y-79770000D02*
X116340000Y-79770000D01*
X111200000Y-82430000D02*
X111200000Y-79770000D01*
X111200000Y-82430000D02*
X116340000Y-82430000D01*
X116340000Y-82430000D02*
X116340000Y-79770000D01*
%TO.C,R4*%
X145570000Y-88246359D02*
X145570000Y-88553641D01*
X146330000Y-88246359D02*
X146330000Y-88553641D01*
%TO.C,U4*%
X87000000Y-71650000D02*
X87000000Y-69150000D01*
X87380000Y-63530000D02*
X99220000Y-63530000D01*
X87380000Y-71270000D02*
X87380000Y-63530000D01*
X87380000Y-71270000D02*
X99220000Y-71270000D01*
X89500000Y-71650000D02*
X87000000Y-71650000D01*
X99220000Y-71270000D02*
X99220000Y-63530000D01*
%TO.C,R10*%
X131933632Y-86246359D02*
X131933632Y-86553641D01*
X132693632Y-86246359D02*
X132693632Y-86553641D01*
%TO.C,C2*%
X120442164Y-75440000D02*
X120657836Y-75440000D01*
X120442164Y-76160000D02*
X120657836Y-76160000D01*
%TO.C,R1*%
X95570000Y-88246359D02*
X95570000Y-88553641D01*
X96330000Y-88246359D02*
X96330000Y-88553641D01*
%TO.C,R32*%
X137696359Y-78645000D02*
X138003641Y-78645000D01*
X137696359Y-79405000D02*
X138003641Y-79405000D01*
%TO.C,R25*%
X118297270Y-86246359D02*
X118297270Y-86553641D01*
X119057270Y-86246359D02*
X119057270Y-86553641D01*
%TO.C,R84*%
X97252500Y-80237742D02*
X97252500Y-80712258D01*
X98297500Y-80237742D02*
X98297500Y-80712258D01*
%TO.C,F1*%
D10*
X75400000Y-95375000D02*
X99900000Y-95375000D01*
X99900000Y-105175000D01*
X75400000Y-105175000D01*
X75400000Y-95375000D01*
X77150000Y-96275000D02*
X98150000Y-96275000D01*
X98150000Y-104275000D01*
X77150000Y-104275000D01*
X77150000Y-96275000D01*
D14*
%TO.C,J5*%
X108600000Y-78430000D02*
X108600000Y-77100000D01*
X109930000Y-78430000D02*
X108600000Y-78430000D01*
X111200000Y-75770000D02*
X116340000Y-75770000D01*
X111200000Y-78430000D02*
X111200000Y-75770000D01*
X111200000Y-78430000D02*
X116340000Y-78430000D01*
X116340000Y-78430000D02*
X116340000Y-75770000D01*
%TO.C,Q12*%
X111577500Y-90000000D02*
X111577500Y-89350000D01*
X111577500Y-90000000D02*
X111577500Y-90650000D01*
X114697500Y-90000000D02*
X114697500Y-89350000D01*
X114697500Y-90000000D02*
X114697500Y-90650000D01*
X114977500Y-89077500D02*
X114647500Y-88837500D01*
X114977500Y-88597500D01*
X114977500Y-89077500D01*
G36*
X114977500Y-89077500D02*
G01*
X114647500Y-88837500D01*
X114977500Y-88597500D01*
X114977500Y-89077500D01*
G37*
%TO.C,Q7*%
X97990000Y-92000000D02*
X97990000Y-91350000D01*
X97990000Y-92000000D02*
X97990000Y-92650000D01*
X101110000Y-92000000D02*
X101110000Y-91350000D01*
X101110000Y-92000000D02*
X101110000Y-92650000D01*
X101390000Y-91077500D02*
X101060000Y-90837500D01*
X101390000Y-90597500D01*
X101390000Y-91077500D01*
G36*
X101390000Y-91077500D02*
G01*
X101060000Y-90837500D01*
X101390000Y-90597500D01*
X101390000Y-91077500D01*
G37*
D10*
%TO.C,J2*%
X101400000Y-107350000D02*
X141900000Y-107350000D01*
X101400000Y-95350000D02*
X141900000Y-95350000D01*
X141900000Y-107850000D01*
X101400000Y-107850000D01*
X101400000Y-95350000D01*
X102900000Y-107850000D02*
X107400000Y-107850000D01*
X107400000Y-112850000D01*
X102900000Y-112850000D01*
X102900000Y-107850000D01*
X109400000Y-107850000D02*
X133400000Y-107850000D01*
X133400000Y-115850000D01*
X109400000Y-115850000D01*
X109400000Y-107850000D01*
X135900000Y-107850000D02*
X140400000Y-107850000D01*
X140400000Y-112850000D01*
X135900000Y-112850000D01*
X135900000Y-107850000D01*
D14*
%TO.C,R80*%
X177677500Y-92737258D02*
X177677500Y-92262742D01*
X178722500Y-92737258D02*
X178722500Y-92262742D01*
%TO.C,Q3*%
X120712724Y-90000000D02*
X120712724Y-89350000D01*
X120712724Y-90000000D02*
X120712724Y-90650000D01*
X123832724Y-90000000D02*
X123832724Y-89350000D01*
X123832724Y-90000000D02*
X123832724Y-90650000D01*
X124112724Y-89077500D02*
X123782724Y-88837500D01*
X124112724Y-88597500D01*
X124112724Y-89077500D01*
G36*
X124112724Y-89077500D02*
G01*
X123782724Y-88837500D01*
X124112724Y-88597500D01*
X124112724Y-89077500D01*
G37*
%TO.C,R7*%
X120800224Y-85962742D02*
X120800224Y-86437258D01*
X121845224Y-85962742D02*
X121845224Y-86437258D01*
%TO.C,Q4*%
X129803632Y-90000000D02*
X129803632Y-89350000D01*
X129803632Y-90000000D02*
X129803632Y-90650000D01*
X132923632Y-90000000D02*
X132923632Y-89350000D01*
X132923632Y-90000000D02*
X132923632Y-90650000D01*
X133203632Y-89077500D02*
X132873632Y-88837500D01*
X133203632Y-88597500D01*
X133203632Y-89077500D01*
G36*
X133203632Y-89077500D02*
G01*
X132873632Y-88837500D01*
X133203632Y-88597500D01*
X133203632Y-89077500D01*
G37*
%TO.C,Q8*%
X125258178Y-90000000D02*
X125258178Y-89350000D01*
X125258178Y-90000000D02*
X125258178Y-90650000D01*
X128378178Y-90000000D02*
X128378178Y-89350000D01*
X128378178Y-90000000D02*
X128378178Y-90650000D01*
X128658178Y-89077500D02*
X128328178Y-88837500D01*
X128658178Y-88597500D01*
X128658178Y-89077500D01*
G36*
X128658178Y-89077500D02*
G01*
X128328178Y-88837500D01*
X128658178Y-88597500D01*
X128658178Y-89077500D01*
G37*
%TO.C,R33*%
X146012742Y-76977500D02*
X146487258Y-76977500D01*
X146012742Y-78022500D02*
X146487258Y-78022500D01*
%TO.C,D8*%
X76490000Y-67937500D02*
X76490000Y-70222500D01*
X76490000Y-70222500D02*
X77960000Y-70222500D01*
X77960000Y-70222500D02*
X77960000Y-67937500D01*
%TO.C,C3*%
X95690000Y-74104437D02*
X95690000Y-77560000D01*
X95690000Y-77560000D02*
X96890000Y-77560000D01*
X96754437Y-73040000D02*
X95690000Y-74104437D01*
X96754437Y-73040000D02*
X96890000Y-73040000D01*
X99145563Y-73040000D02*
X99010000Y-73040000D01*
X99145563Y-73040000D02*
X100210000Y-74104437D01*
X99510000Y-72300000D02*
X99510000Y-72800000D01*
X99760000Y-72550000D02*
X99260000Y-72550000D01*
X100210000Y-74104437D02*
X100210000Y-77560000D01*
X100210000Y-77560000D02*
X99010000Y-77560000D01*
D10*
%TO.C,SW5*%
X141715000Y-71775000D02*
X146065000Y-71775000D01*
X141715000Y-72525000D02*
X141715000Y-71775000D01*
X141715000Y-74775000D02*
X141715000Y-74025000D01*
X146065000Y-71775000D02*
X146065000Y-72525000D01*
X146065000Y-74025000D02*
X146065000Y-74775000D01*
X146065000Y-74775000D02*
X141715000Y-74775000D01*
D12*
X145081190Y-73275000D02*
G75*
G02*
X142748810Y-73275000I-1166190J0D01*
G01*
X142748810Y-73275000D02*
G75*
G02*
X145081190Y-73275000I1166190J0D01*
G01*
D14*
%TO.C,C5*%
X133565000Y-77722164D02*
X133565000Y-77937836D01*
X134285000Y-77722164D02*
X134285000Y-77937836D01*
%TO.C,R35*%
X102602500Y-88012742D02*
X102602500Y-88487258D01*
X103647500Y-88012742D02*
X103647500Y-88487258D01*
%TO.C,Q13*%
X102540000Y-91837500D02*
X102540000Y-91187500D01*
X102540000Y-91837500D02*
X102540000Y-92487500D01*
X105660000Y-91837500D02*
X105660000Y-91187500D01*
X105660000Y-91837500D02*
X105660000Y-92487500D01*
X105940000Y-90915000D02*
X105610000Y-90675000D01*
X105940000Y-90435000D01*
X105940000Y-90915000D01*
G36*
X105940000Y-90915000D02*
G01*
X105610000Y-90675000D01*
X105940000Y-90435000D01*
X105940000Y-90915000D01*
G37*
%TO.C,C6*%
X89490000Y-74054437D02*
X89490000Y-77510000D01*
X89490000Y-77510000D02*
X90690000Y-77510000D01*
X90554437Y-72990000D02*
X89490000Y-74054437D01*
X90554437Y-72990000D02*
X90690000Y-72990000D01*
X92945563Y-72990000D02*
X92810000Y-72990000D01*
X92945563Y-72990000D02*
X94010000Y-74054437D01*
X93310000Y-72250000D02*
X93310000Y-72750000D01*
X93560000Y-72500000D02*
X93060000Y-72500000D01*
X94010000Y-74054437D02*
X94010000Y-77510000D01*
X94010000Y-77510000D02*
X92810000Y-77510000D01*
%TO.C,R22*%
X107163862Y-85962742D02*
X107163862Y-86437258D01*
X108208862Y-85962742D02*
X108208862Y-86437258D01*
%TD*%
%LPC*%
D15*
%TO.C,R17*%
X136859086Y-87890000D03*
X136859086Y-88910000D03*
%TD*%
D16*
%TO.C,R82*%
X104825000Y-76350000D03*
X104825000Y-78000000D03*
%TD*%
D17*
%TO.C,R85*%
X145350000Y-82650000D03*
X145350000Y-81000000D03*
%TD*%
%TO.C,R29*%
X81175000Y-65550000D03*
X81175000Y-63900000D03*
%TD*%
D18*
%TO.C,Q6*%
X136859086Y-91062500D03*
X134959086Y-91062500D03*
X135909086Y-92937500D03*
%TD*%
D19*
%TO.C,REF\u002A\u002A*%
X179798160Y-83925000D03*
%TD*%
D18*
%TO.C,Q5*%
X141404540Y-91062500D03*
X139504540Y-91062500D03*
X140454540Y-92937500D03*
%TD*%
D20*
%TO.C,D13*%
X171905000Y-102537500D03*
X171905000Y-100962500D03*
%TD*%
D18*
%TO.C,Q1*%
X95950000Y-91062500D03*
X94050000Y-91062500D03*
X95000000Y-92937500D03*
%TD*%
D20*
%TO.C,D27*%
X175525000Y-100487500D03*
X175525000Y-98912500D03*
%TD*%
D17*
%TO.C,R27*%
X73275000Y-65550000D03*
X73275000Y-63900000D03*
%TD*%
D16*
%TO.C,R16*%
X134959086Y-87375000D03*
X134959086Y-89025000D03*
%TD*%
D17*
%TO.C,R12*%
X164068332Y-98475000D03*
X164068332Y-96825000D03*
%TD*%
%TO.C,R39*%
X171905000Y-98475000D03*
X171905000Y-96825000D03*
%TD*%
D16*
%TO.C,R5*%
X94050000Y-87375000D03*
X94050000Y-89025000D03*
%TD*%
D20*
%TO.C,D2*%
X156231666Y-102537500D03*
X156231666Y-100962500D03*
%TD*%
D19*
%TO.C,REF\u002A\u002A*%
X64339340Y-102410660D03*
%TD*%
D20*
%TO.C,D5*%
X152313333Y-102537500D03*
X152313333Y-100962500D03*
%TD*%
D21*
%TO.C,J4*%
X155275000Y-67125000D03*
D22*
X152735000Y-67125000D03*
X150195000Y-67125000D03*
X147655000Y-67125000D03*
X145115000Y-67125000D03*
X142575000Y-67125000D03*
%TD*%
D17*
%TO.C,R28*%
X77225000Y-65550000D03*
X77225000Y-63900000D03*
%TD*%
D15*
%TO.C,R24*%
X127768178Y-85890000D03*
X127768178Y-86910000D03*
%TD*%
D17*
%TO.C,R83*%
X104850000Y-81200000D03*
X104850000Y-79550000D03*
%TD*%
D23*
%TO.C,C1*%
X87800000Y-72875000D03*
X87800000Y-75825000D03*
%TD*%
D24*
%TO.C,C4*%
X118950000Y-77280000D03*
X118950000Y-78240000D03*
%TD*%
D15*
%TO.C,R23*%
X100495454Y-87890000D03*
X100495454Y-88910000D03*
%TD*%
D20*
%TO.C,D10*%
X69325000Y-69612500D03*
X69325000Y-68037500D03*
%TD*%
D17*
%TO.C,R2*%
X148395000Y-98475000D03*
X148395000Y-96825000D03*
%TD*%
D18*
%TO.C,Q2*%
X145950000Y-91062500D03*
X144050000Y-91062500D03*
X145000000Y-92937500D03*
%TD*%
D17*
%TO.C,R15*%
X152313333Y-98475000D03*
X152313333Y-96825000D03*
%TD*%
%TO.C,R38*%
X167986665Y-98475000D03*
X167986665Y-96825000D03*
%TD*%
D15*
%TO.C,R37*%
X105075000Y-87890000D03*
X105075000Y-88910000D03*
%TD*%
D20*
%TO.C,D12*%
X167986665Y-102537500D03*
X167986665Y-100962500D03*
%TD*%
D16*
%TO.C,R21*%
X116777270Y-85375000D03*
X116777270Y-87025000D03*
%TD*%
D20*
%TO.C,D3*%
X160149999Y-102537500D03*
X160149999Y-100962500D03*
%TD*%
%TO.C,D7*%
X73275000Y-69612500D03*
X73275000Y-68037500D03*
%TD*%
%TO.C,D9*%
X81200000Y-69512500D03*
X81200000Y-67937500D03*
%TD*%
D15*
%TO.C,R9*%
X123222724Y-85890000D03*
X123222724Y-86910000D03*
%TD*%
D17*
%TO.C,R11*%
X160149999Y-98475000D03*
X160149999Y-96825000D03*
%TD*%
D16*
%TO.C,R8*%
X130413632Y-85375000D03*
X130413632Y-87025000D03*
%TD*%
D17*
%TO.C,R6*%
X156231666Y-98475000D03*
X156231666Y-96825000D03*
%TD*%
D25*
%TO.C,Y1*%
X130680000Y-79450000D03*
X122180000Y-79450000D03*
%TD*%
D15*
%TO.C,R14*%
X141404540Y-87890000D03*
X141404540Y-88910000D03*
%TD*%
%TO.C,R26*%
X109586362Y-85890000D03*
X109586362Y-86910000D03*
%TD*%
%TO.C,R36*%
X114131816Y-85890000D03*
X114131816Y-86910000D03*
%TD*%
D17*
%TO.C,R31*%
X137350000Y-77500000D03*
X137350000Y-75850000D03*
%TD*%
D16*
%TO.C,R20*%
X125868178Y-85375000D03*
X125868178Y-87025000D03*
%TD*%
D18*
%TO.C,Q9*%
X118677270Y-89062500D03*
X116777270Y-89062500D03*
X117727270Y-90937500D03*
%TD*%
D26*
%TO.C,D11*%
X143800000Y-75927500D03*
X143800000Y-77502500D03*
%TD*%
D20*
%TO.C,D28*%
X72725000Y-100487500D03*
X72725000Y-98912500D03*
%TD*%
D17*
%TO.C,R30*%
X69325000Y-65550000D03*
X69325000Y-63900000D03*
%TD*%
D27*
%TO.C,Q11*%
X140100000Y-78052500D03*
X142000000Y-78052500D03*
X141050000Y-76177500D03*
%TD*%
D20*
%TO.C,D6*%
X65375000Y-69612500D03*
X65375000Y-68037500D03*
%TD*%
D17*
%TO.C,R18*%
X65375000Y-65550000D03*
X65375000Y-63900000D03*
%TD*%
D18*
%TO.C,Q10*%
X109575000Y-89062500D03*
X107675000Y-89062500D03*
X108625000Y-90937500D03*
%TD*%
D16*
%TO.C,R19*%
X98595454Y-87375000D03*
X98595454Y-89025000D03*
%TD*%
D28*
%TO.C,U1*%
X104835000Y-73700000D03*
D29*
X107375000Y-73700000D03*
X109915000Y-73700000D03*
X112455000Y-73700000D03*
X114995000Y-73700000D03*
X117535000Y-73700000D03*
X120075000Y-73700000D03*
X122615000Y-73700000D03*
X125155000Y-73700000D03*
X127695000Y-73700000D03*
X130235000Y-73700000D03*
X132775000Y-73700000D03*
X135315000Y-73700000D03*
X137855000Y-73700000D03*
X137855000Y-66080000D03*
X135315000Y-66080000D03*
X132775000Y-66080000D03*
X130235000Y-66080000D03*
X127695000Y-66080000D03*
X125155000Y-66080000D03*
X122615000Y-66080000D03*
X120075000Y-66080000D03*
X117535000Y-66080000D03*
X114995000Y-66080000D03*
X112455000Y-66080000D03*
X109915000Y-66080000D03*
X107375000Y-66080000D03*
X104835000Y-66080000D03*
%TD*%
D20*
%TO.C,D1*%
X148395000Y-102537500D03*
X148395000Y-100962500D03*
%TD*%
D16*
%TO.C,R13*%
X139504540Y-87375000D03*
X139504540Y-89025000D03*
%TD*%
%TO.C,R3*%
X144050000Y-87375000D03*
X144050000Y-89025000D03*
%TD*%
%TO.C,R34*%
X112231816Y-85375000D03*
X112231816Y-87025000D03*
%TD*%
D20*
%TO.C,D4*%
X164068332Y-102537500D03*
X164068332Y-100962500D03*
%TD*%
D30*
%TO.C,R79*%
X77025000Y-94550000D03*
X75375000Y-94550000D03*
%TD*%
D21*
%TO.C,J6*%
X109930000Y-81100000D03*
D22*
X112470000Y-81100000D03*
X115010000Y-81100000D03*
%TD*%
D15*
%TO.C,R4*%
X145950000Y-87890000D03*
X145950000Y-88910000D03*
%TD*%
D31*
%TO.C,U4*%
X90760000Y-69100000D03*
D32*
X93300000Y-69100000D03*
X95840000Y-69100000D03*
%TD*%
D15*
%TO.C,R10*%
X132313632Y-85890000D03*
X132313632Y-86910000D03*
%TD*%
D33*
%TO.C,C2*%
X120070000Y-75800000D03*
X121030000Y-75800000D03*
%TD*%
D15*
%TO.C,R1*%
X95950000Y-87890000D03*
X95950000Y-88910000D03*
%TD*%
D34*
%TO.C,R32*%
X137340000Y-79025000D03*
X138360000Y-79025000D03*
%TD*%
D15*
%TO.C,R25*%
X118677270Y-85890000D03*
X118677270Y-86910000D03*
%TD*%
D16*
%TO.C,R84*%
X97775000Y-79650000D03*
X97775000Y-81300000D03*
%TD*%
D35*
%TO.C,F1*%
X76400000Y-100275000D03*
X98900000Y-100275000D03*
%TD*%
D21*
%TO.C,J5*%
X109930000Y-77100000D03*
D22*
X112470000Y-77100000D03*
X115010000Y-77100000D03*
%TD*%
D18*
%TO.C,Q12*%
X114087500Y-89062500D03*
X112187500Y-89062500D03*
X113137500Y-90937500D03*
%TD*%
%TO.C,Q7*%
X100500000Y-91062500D03*
X98600000Y-91062500D03*
X99550000Y-92937500D03*
%TD*%
D36*
%TO.C,J2*%
X104740000Y-98350000D03*
X138060000Y-98350000D03*
D37*
X111705000Y-96930000D03*
X114475000Y-96930000D03*
X117245000Y-96930000D03*
X120015000Y-96930000D03*
X122785000Y-96930000D03*
X125555000Y-96930000D03*
X128325000Y-96930000D03*
X131095000Y-96930000D03*
X113090000Y-99770000D03*
X115860000Y-99770000D03*
X118630000Y-99770000D03*
X121400000Y-99770000D03*
X124170000Y-99770000D03*
X126940000Y-99770000D03*
X129710000Y-99770000D03*
%TD*%
D17*
%TO.C,R80*%
X178200000Y-93325000D03*
X178200000Y-91675000D03*
%TD*%
D18*
%TO.C,Q3*%
X123222724Y-89062500D03*
X121322724Y-89062500D03*
X122272724Y-90937500D03*
%TD*%
D16*
%TO.C,R7*%
X121322724Y-85375000D03*
X121322724Y-87025000D03*
%TD*%
D18*
%TO.C,Q4*%
X132313632Y-89062500D03*
X130413632Y-89062500D03*
X131363632Y-90937500D03*
%TD*%
%TO.C,Q8*%
X127768178Y-89062500D03*
X125868178Y-89062500D03*
X126818178Y-90937500D03*
%TD*%
D38*
%TO.C,R33*%
X145425000Y-77500000D03*
X147075000Y-77500000D03*
%TD*%
D39*
%TO.C,*%
X162650000Y-67100000D03*
%TD*%
D20*
%TO.C,D8*%
X77225000Y-69525000D03*
X77225000Y-67950000D03*
%TD*%
D39*
%TO.C,*%
X167800000Y-67100000D03*
%TD*%
D40*
%TO.C,C3*%
X97950000Y-73500000D03*
X97950000Y-77100000D03*
%TD*%
D41*
%TO.C,SW5*%
X146100000Y-73275000D03*
X141730000Y-73275000D03*
%TD*%
D24*
%TO.C,C5*%
X133925000Y-77350000D03*
X133925000Y-78310000D03*
%TD*%
D16*
%TO.C,R35*%
X103125000Y-87425000D03*
X103125000Y-89075000D03*
%TD*%
D18*
%TO.C,Q13*%
X105050000Y-90900000D03*
X103150000Y-90900000D03*
X104100000Y-92775000D03*
%TD*%
D40*
%TO.C,C6*%
X91750000Y-73450000D03*
X91750000Y-77050000D03*
%TD*%
D16*
%TO.C,R22*%
X107686362Y-85375000D03*
X107686362Y-87025000D03*
%TD*%
D37*
%TO.C,SW1*%
X102100000Y-80950000D03*
X95600000Y-80950000D03*
X102100000Y-85450000D03*
X95600000Y-85450000D03*
%TD*%
D42*
%TO.C,U3*%
X83300000Y-92550000D03*
X83300000Y-77050000D03*
X70000000Y-92550000D03*
X70000000Y-77050000D03*
D43*
X68400000Y-88050000D03*
X63900000Y-88050000D03*
D32*
X86400000Y-82300000D03*
X86400000Y-84800000D03*
X86400000Y-87300000D03*
X79150000Y-75050000D03*
X76650000Y-75050000D03*
X74150000Y-75050000D03*
D43*
X63900000Y-81550000D03*
X68400000Y-81550000D03*
%TD*%
D42*
%TO.C,U2*%
X170550000Y-92550000D03*
X170550000Y-77050000D03*
X157250000Y-92550000D03*
X157250000Y-77050000D03*
D43*
X155650000Y-88050000D03*
X151150000Y-88050000D03*
D32*
X173650000Y-82300000D03*
X173650000Y-84800000D03*
X173650000Y-87300000D03*
X166400000Y-75050000D03*
X163900000Y-75050000D03*
X161400000Y-75050000D03*
D43*
X151150000Y-81550000D03*
X155650000Y-81550000D03*
%TD*%
D37*
%TO.C,SW2*%
X141400000Y-80950000D03*
X134900000Y-80950000D03*
X141400000Y-85450000D03*
X134900000Y-85450000D03*
%TD*%
%LPD*%
M02*
